<?xml version="1.0" encoding="utf-8" standalone="no"?><!DOCTYPE svg PUBLIC "-//W3C//DTD SVG 1.1//EN" "http://www.w3.org/Graphics/SVG/1.1/DTD/svg11.dtd">
<svg preserveAspectRatio="xMinYMin meet" width="100%" height="100%" viewBox="0 0 1350.000 200.000"  version="1.1" xmlns="http://www.w3.org/2000/svg" xmlns:xlink="http://www.w3.org/1999/xlink">
  <desc>Matlab Figure Converted by PLOT2SVG written by Juerg Schwizer</desc>
  <g id="topgroup">
  <rect x="0" y="0" width="1350.000" height="200.000" fill="#ffffff" stroke="none" />
  <g id ="ID000000">
  <clipPath id="ID000001">
    <rect x="13.500" y="0.000" width="1336.500" height="200.000"/>
  </clipPath>
      <polygon fill="#ffffff" fill-opacity="1.00" stroke="none" stroke-width="1.5pt" stroke-opacity="1.00" stroke-dasharray="none" points="13.500,200.000 1350.000,200.000 1350.000,0.000 13.500,0.000 "/>
      <polygon fill="#ffffff" fill-opacity="1.00" stroke="none" stroke-width="1.5pt" stroke-opacity="1.00" stroke-dasharray="none" points="13.500,0.000 1350.000,0.000 1350.000,0.000 13.500,0.000 "/>
      <polygon fill="#ffffff" fill-opacity="1.00" stroke="none" stroke-width="1.5pt" stroke-opacity="1.00" stroke-dasharray="none" points="13.500,200.000 13.500,200.000 13.500,0.000 13.500,0.000 "/>
    <g>
<g id="ID000002" clip-path="url(#ID000001)" >
      <polyline fill="none" stroke="#00a000" stroke-width="1.5pt" stroke-dasharray="none" points="13.500,129.451 21.699,92.316 29.899,86.409 38.098,72.470 46.298,79.302 54.497,129.160 62.696,137.354 70.896,139.489 79.095,152.297 87.294,193.919 95.494,183.483 103.693,156.931 111.893,129.738 120.092,134.723 128.291,109.305 136.491,116.238 144.690,108.851 152.890,69.464 161.089,89.256 169.288,128.875 177.488,130.540 185.687,116.375 193.887,50.376 202.086,36.546 210.285,101.415 218.485,79.752 226.684,65.402 234.883,93.353 243.083,85.877 251.282,77.355 259.482,80.166 267.681,92.614 275.880,89.013 284.080,118.425 292.279,122.138 300.479,131.121 308.678,139.541 316.877,132.535 325.077,129.229 333.276,160.285 341.475,151.149 349.675,111.283 357.874,76.906 366.074,89.545 374.273,140.485 382.472,143.860 390.672,96.466 398.871,97.465 407.071,141.129 415.270,138.449 423.469,147.799 431.669,162.056 439.868,180.408 448.067,175.492 456.267,150.761 464.466,150.568 472.666,146.043 480.865,138.542 489.064,85.630 497.264,85.717 505.463,98.039 513.663,116.015 521.862,76.333 530.061,84.088 538.261,72.584 546.460,88.011 554.660,132.991 562.859,150.683 571.058,162.321 579.258,169.174 587.457,160.547 595.656,87.525 603.856,21.007 612.055,0.000 620.255,7.244 628.454,76.405 636.653,130.482 644.853,142.682 653.052,155.218 661.252,200.000 669.451,186.739 677.650,167.889 685.850,132.880 694.049,91.303 702.248,30.721 710.448,56.891 718.647,121.134 726.847,152.640 735.046,158.767 743.245,137.744 751.445,128.095 759.644,93.980 767.844,58.415 776.043,77.921 784.242,118.117 792.442,144.622 800.641,140.349 808.840,129.482 817.040,134.998 825.239,124.946 833.439,152.649 841.638,136.185 849.837,67.213 858.037,92.107 866.236,176.574 874.436,200.000 882.635,185.576 890.834,157.456 899.034,128.050 907.233,112.729 915.433,112.428 923.632,84.472 931.831,67.896 940.031,29.712 948.230,22.198 956.429,14.309 964.629,81.176 972.828,151.182 981.028,137.431 989.227,130.321 997.426,137.447 1005.626,136.422 1013.825,145.208 1022.025,143.255 1030.224,83.897 1038.423,23.771 1046.623,61.601 1054.822,127.668 1063.021,128.344 1071.221,140.786 1079.420,155.504 1087.620,100.806 1095.819,19.107 1104.018,0.000 1112.218,47.202 1120.417,104.378 1128.617,187.051 1136.816,194.290 1145.015,193.061 1153.215,192.020 1161.414,182.660 1169.613,113.977 1177.813,71.944 1186.012,72.454 1194.212,95.038 1202.411,148.331 1210.610,156.020 1218.810,167.889 1227.009,139.047 1235.209,96.703 1243.408,95.189 1251.607,131.554 1259.807,83.478 1268.006,57.815 1276.206,108.489 1284.405,154.486 1292.604,151.486 1300.804,168.684 1309.003,169.117 1317.202,154.257 1325.402,129.886 1333.601,73.729 1341.801,17.088 1350.000,17.523 "/>
<g>
</g>
</g>
<g id="ID000003" >
</g>
<g id="ID000004" >
</g>
<g id="ID000005" >
</g>
<g id="ID000006" >
      <polyline fill="none" stroke="#000000" stroke-width="1.5pt" stroke-dasharray="none" points="13.500,200.000 13.500,0.000 "/>
<g>
</g>
</g>
<g id="ID000007" >
      <polyline fill="none" stroke="#000000" stroke-width="1.5pt" stroke-dasharray="none" points="13.500,100.000 1350.000,100.000 "/>
<g>
</g>
</g>
    </g>
    <g>
      <polyline fill="none" stroke="#ffffff" stroke-width="1.5pt" stroke-dasharray="none" points="13.500,200.000 13.500,186.635 "/>
      <polyline fill="none" stroke="#ffffff" stroke-width="1.5pt" stroke-dasharray="none" points="825.239,200.000 825.239,186.635 "/>
      <polyline fill="none" stroke="#ffffff" stroke-width="1.5pt" stroke-dasharray="none" points="1350.000,200.000 1350.000,186.635 "/>
      <polyline fill="none" stroke="#ffffff" stroke-width="1.5pt" stroke-dasharray="none" points="13.500,200.000 1350.000,200.000 "/>
  <g transform="translate(13.500,215.800)">
    <g transform="rotate(-0.0)">
      <text x="0.000" y="0.000" font-family="Helvetica" text-anchor="middle" font-size="10pt" fill="#ffffff" >  1</text>
    </g>
  </g>
  <g transform="translate(825.239,215.800)">
    <g transform="rotate(-0.0)">
      <text x="0.000" y="0.000" font-family="Helvetica" text-anchor="middle" font-size="10pt" fill="#ffffff" >100</text>
    </g>
  </g>
  <g transform="translate(1350.000,215.800)">
    <g transform="rotate(-0.0)">
      <text x="0.000" y="0.000" font-family="Helvetica" text-anchor="middle" font-size="10pt" fill="#ffffff" >164</text>
    </g>
  </g>
      <polyline fill="none" stroke="#000000" stroke-width="1.5pt" stroke-dasharray="none" points="13.500,200.000 13.500,0.000 "/>
      <polyline fill="none" stroke="#000000" stroke-width="1.5pt" stroke-dasharray="none" points="13.500,200.000 13.500,198.000 "/>
      <polyline fill="none" stroke="#000000" stroke-width="1.5pt" stroke-dasharray="none" points="13.500,200.000 13.500,198.000 "/>
      <polyline fill="none" stroke="#000000" stroke-width="1.5pt" stroke-dasharray="none" points="13.500,200.000 13.500,198.000 "/>
      <polyline fill="none" stroke="#000000" stroke-width="1.5pt" stroke-dasharray="none" points="13.500,200.000 13.500,200.000 "/>
    </g>
  </g>
  </g>
</svg>
