<?xml version="1.0" encoding="utf-8" standalone="no"?><!DOCTYPE svg PUBLIC "-//W3C//DTD SVG 1.1//EN" "http://www.w3.org/Graphics/SVG/1.1/DTD/svg11.dtd">
<svg preserveAspectRatio="xMinYMin meet" width="100%" height="100%" viewBox="0 0 1350.000 200.000"  version="1.1" xmlns="http://www.w3.org/2000/svg" xmlns:xlink="http://www.w3.org/1999/xlink">
  <desc>Matlab Figure Converted by PLOT2SVG written by Juerg Schwizer</desc>
  <g id="topgroup">
  <rect x="0" y="0" width="1350.000" height="200.000" fill="#ffffff" stroke="none" />
  <g id ="ID000000">
  <clipPath id="ID000001">
    <rect x="13.500" y="0.000" width="1336.500" height="200.000"/>
  </clipPath>
      <polygon fill="#ffffff" fill-opacity="1.00" stroke="none" stroke-width="1.5pt" stroke-opacity="1.00" stroke-dasharray="none" points="13.500,200.000 1350.000,200.000 1350.000,0.000 13.500,0.000 "/>
      <polygon fill="#ffffff" fill-opacity="1.00" stroke="none" stroke-width="1.5pt" stroke-opacity="1.00" stroke-dasharray="none" points="13.500,0.000 1350.000,0.000 1350.000,0.000 13.500,0.000 "/>
      <polygon fill="#ffffff" fill-opacity="1.00" stroke="none" stroke-width="1.5pt" stroke-opacity="1.00" stroke-dasharray="none" points="13.500,200.000 13.500,200.000 13.500,0.000 13.500,0.000 "/>
    <g>
<g id="ID000002" clip-path="url(#ID000001)" >
      <polyline fill="none" stroke="#00a000" stroke-width="1.5pt" stroke-dasharray="none" points="13.500,0.000 21.699,67.652 29.899,77.254 38.098,109.714 46.298,68.654 54.497,79.599 62.696,122.686 70.896,146.457 79.095,88.202 87.294,20.065 95.494,173.230 103.693,129.379 111.893,123.044 120.092,157.422 128.291,16.164 136.491,139.798 144.690,154.086 152.890,123.793 161.089,157.176 169.288,169.337 177.488,134.760 185.687,58.285 193.887,44.862 202.086,152.943 210.285,148.291 218.485,200.000 226.684,116.905 234.883,108.932 243.083,130.896 251.282,187.993 259.482,178.931 267.681,113.629 275.880,98.860 284.080,165.763 292.279,103.682 300.479,120.442 308.678,83.304 316.877,128.744 325.077,75.273 333.276,51.098 341.475,105.081 349.675,130.839 357.874,115.714 366.074,101.716 374.273,139.292 382.472,173.340 390.672,154.734 398.871,122.465 407.071,104.254 415.270,166.923 423.469,139.388 431.669,180.055 439.868,109.156 448.067,139.292 456.267,89.806 464.466,129.153 472.666,99.345 480.865,75.561 489.064,58.893 497.264,50.690 505.463,154.306 513.663,120.394 521.862,76.272 530.061,73.194 538.261,153.339 546.460,134.891 554.660,129.966 562.859,134.282 571.058,131.100 579.258,167.801 587.457,126.913 595.656,101.981 603.856,97.047 612.055,47.979 620.255,54.311 628.454,67.509 636.653,50.415 644.853,78.407 653.052,29.864 661.252,69.446 669.451,111.299 677.650,137.170 685.850,71.012 694.049,93.178 702.248,64.013 710.448,150.528 718.647,137.783 726.847,83.612 735.046,69.222 743.245,131.013 751.445,26.777 759.644,95.290 767.844,81.075 776.043,141.320 784.242,123.018 792.442,94.069 800.641,105.436 808.840,150.615 817.040,100.838 825.239,95.585 833.439,169.113 841.638,161.651 849.837,74.661 858.037,93.207 866.236,50.348 874.436,9.592 882.635,18.181 890.834,50.424 899.034,56.059 907.233,155.242 915.433,171.065 923.632,143.400 931.831,169.080 940.031,134.033 948.230,96.936 956.429,200.000 964.629,163.151 972.828,110.539 981.028,72.119 989.227,168.061 997.426,141.191 1005.626,0.000 1013.825,175.379 1022.025,161.345 1030.224,52.240 1038.423,95.979 1046.623,66.959 1054.822,101.784 1063.021,74.132 1071.221,132.362 1079.420,58.435 1087.620,107.662 1095.819,97.209 1104.018,121.090 1112.218,144.736 1120.417,155.550 1128.617,132.280 1136.816,42.934 1145.015,104.580 1153.215,49.963 1161.414,86.049 1169.613,106.984 1177.813,95.846 1186.012,130.548 1194.212,130.577 1202.411,140.546 1210.610,96.527 1218.810,116.538 1227.009,71.052 1235.209,4.763 1243.408,65.773 1251.607,187.411 1259.807,187.586 1268.006,40.450 1276.206,125.179 1284.405,117.644 1292.604,90.295 1300.804,189.558 1309.003,140.913 1317.202,106.781 1325.402,94.236 1333.601,55.665 1341.801,85.282 1350.000,157.779 "/>
<g>
</g>
</g>
<g id="ID000003" >
</g>
<g id="ID000004" >
</g>
<g id="ID000005" >
</g>
<g id="ID000006" >
      <polyline fill="none" stroke="#000000" stroke-width="1.5pt" stroke-dasharray="none" points="13.500,200.000 13.500,0.000 "/>
<g>
</g>
</g>
<g id="ID000007" >
      <polyline fill="none" stroke="#000000" stroke-width="1.5pt" stroke-dasharray="none" points="13.500,100.000 1350.000,100.000 "/>
<g>
</g>
</g>
    </g>
    <g>
      <polyline fill="none" stroke="#ffffff" stroke-width="1.5pt" stroke-dasharray="none" points="13.500,200.000 13.500,186.635 "/>
      <polyline fill="none" stroke="#ffffff" stroke-width="1.5pt" stroke-dasharray="none" points="825.239,200.000 825.239,186.635 "/>
      <polyline fill="none" stroke="#ffffff" stroke-width="1.5pt" stroke-dasharray="none" points="1350.000,200.000 1350.000,186.635 "/>
      <polyline fill="none" stroke="#ffffff" stroke-width="1.5pt" stroke-dasharray="none" points="13.500,200.000 1350.000,200.000 "/>
  <g transform="translate(13.500,215.800)">
    <g transform="rotate(-0.0)">
      <text x="0.000" y="0.000" font-family="Helvetica" text-anchor="middle" font-size="10pt" fill="#ffffff" >  1</text>
    </g>
  </g>
  <g transform="translate(825.239,215.800)">
    <g transform="rotate(-0.0)">
      <text x="0.000" y="0.000" font-family="Helvetica" text-anchor="middle" font-size="10pt" fill="#ffffff" >100</text>
    </g>
  </g>
  <g transform="translate(1350.000,215.800)">
    <g transform="rotate(-0.0)">
      <text x="0.000" y="0.000" font-family="Helvetica" text-anchor="middle" font-size="10pt" fill="#ffffff" >164</text>
    </g>
  </g>
      <polyline fill="none" stroke="#000000" stroke-width="1.5pt" stroke-dasharray="none" points="13.500,200.000 13.500,0.000 "/>
      <polyline fill="none" stroke="#000000" stroke-width="1.5pt" stroke-dasharray="none" points="13.500,200.000 13.500,198.000 "/>
      <polyline fill="none" stroke="#000000" stroke-width="1.5pt" stroke-dasharray="none" points="13.500,200.000 13.500,198.000 "/>
      <polyline fill="none" stroke="#000000" stroke-width="1.5pt" stroke-dasharray="none" points="13.500,200.000 13.500,198.000 "/>
      <polyline fill="none" stroke="#000000" stroke-width="1.5pt" stroke-dasharray="none" points="13.500,200.000 13.500,200.000 "/>
    </g>
  </g>
  </g>
</svg>
