<?xml version="1.0" encoding="utf-8" standalone="no"?><!DOCTYPE svg PUBLIC "-//W3C//DTD SVG 1.1//EN" "http://www.w3.org/Graphics/SVG/1.1/DTD/svg11.dtd">
<svg preserveAspectRatio="xMinYMin meet" width="100%" height="100%" viewBox="0 0 1350.000 200.000"  version="1.1" xmlns="http://www.w3.org/2000/svg" xmlns:xlink="http://www.w3.org/1999/xlink">
  <desc>Matlab Figure Converted by PLOT2SVG written by Juerg Schwizer</desc>
  <g id="topgroup">
  <rect x="0" y="0" width="1350.000" height="200.000" fill="#ffffff" stroke="none" />
  <g id ="ID000000">
  <clipPath id="ID000001">
    <rect x="13.500" y="0.000" width="1336.500" height="200.000"/>
  </clipPath>
      <polygon fill="#ffffff" fill-opacity="1.00" stroke="none" stroke-width="1.5pt" stroke-opacity="1.00" stroke-dasharray="none" points="13.500,200.000 1350.000,200.000 1350.000,0.000 13.500,0.000 "/>
      <polygon fill="#ffffff" fill-opacity="1.00" stroke="none" stroke-width="1.5pt" stroke-opacity="1.00" stroke-dasharray="none" points="13.500,0.000 1350.000,0.000 1350.000,0.000 13.500,0.000 "/>
      <polygon fill="#ffffff" fill-opacity="1.00" stroke="none" stroke-width="1.5pt" stroke-opacity="1.00" stroke-dasharray="none" points="13.500,200.000 13.500,200.000 13.500,0.000 13.500,0.000 "/>
    <g>
<g id="ID000002" clip-path="url(#ID000001)" >
      <polyline fill="none" stroke="#e09000" stroke-width="1.5pt" stroke-dasharray="none" points="13.500,0.000 21.699,0.440 29.899,112.721 38.098,169.661 46.298,40.932 54.497,140.424 62.696,135.794 70.896,94.669 79.095,140.546 87.294,112.958 95.494,95.738 103.693,40.297 111.893,84.259 120.092,139.164 128.291,102.331 136.491,98.955 144.690,117.301 152.890,107.655 161.089,106.320 169.288,139.781 177.488,131.057 185.687,116.735 193.887,121.203 202.086,103.848 210.285,12.077 218.485,83.340 226.684,80.845 234.883,114.774 243.083,120.804 251.282,160.773 259.482,99.393 267.681,89.754 275.880,111.827 284.080,80.621 292.279,106.190 300.479,123.146 308.678,25.233 316.877,29.514 325.077,74.357 333.276,109.601 341.475,166.535 349.675,89.258 357.874,66.281 366.074,76.305 374.273,44.383 382.472,74.001 390.672,115.331 398.871,93.642 407.071,135.315 415.270,153.119 423.469,200.000 431.669,148.605 439.868,102.506 448.067,95.534 456.267,77.037 464.466,86.268 472.666,40.789 480.865,80.968 489.064,73.504 497.264,99.953 505.463,200.000 513.663,137.460 521.862,83.672 530.061,153.282 538.261,122.018 546.460,134.805 554.660,77.972 562.859,170.582 571.058,126.551 579.258,126.864 587.457,101.482 595.656,61.439 603.856,131.994 612.055,34.370 620.255,102.942 628.454,56.556 636.653,46.608 644.853,87.812 653.052,113.768 661.252,101.891 669.451,62.741 677.650,98.685 685.850,98.184 694.049,121.312 702.248,161.874 710.448,107.907 718.647,142.486 726.847,47.797 735.046,114.818 743.245,94.024 751.445,77.558 759.644,108.992 767.844,81.030 776.043,78.666 784.242,107.332 792.442,74.954 800.641,135.261 808.840,35.526 817.040,63.652 825.239,140.267 833.439,170.981 841.638,95.939 849.837,40.222 858.037,0.000 866.236,12.455 874.436,113.818 882.635,51.817 890.834,74.585 899.034,138.944 907.233,77.113 915.433,119.407 923.632,102.880 931.831,45.594 940.031,74.738 948.230,100.249 956.429,47.149 964.629,18.919 972.828,76.161 981.028,77.890 989.227,113.753 997.426,131.595 1005.626,99.493 1013.825,93.379 1022.025,170.876 1030.224,138.781 1038.423,105.848 1046.623,90.184 1054.822,56.592 1063.021,144.617 1071.221,101.471 1079.420,5.996 1087.620,98.671 1095.819,172.809 1104.018,164.013 1112.218,170.512 1120.417,166.864 1128.617,67.741 1136.816,60.353 1145.015,84.840 1153.215,141.783 1161.414,126.458 1169.613,104.190 1177.813,73.805 1186.012,24.240 1194.212,124.405 1202.411,69.736 1210.610,109.131 1218.810,107.526 1227.009,72.012 1235.209,76.327 1243.408,126.783 1251.607,196.487 1259.807,116.082 1268.006,80.697 1276.206,80.991 1284.405,56.244 1292.604,33.224 1300.804,116.065 1309.003,132.753 1317.202,46.195 1325.402,87.002 1333.601,102.520 1341.801,50.600 1350.000,89.948 "/>
<g>
</g>
</g>
<g id="ID000003" >
</g>
<g id="ID000004" >
</g>
<g id="ID000005" >
</g>
<g id="ID000006" >
      <polyline fill="none" stroke="#000000" stroke-width="1.5pt" stroke-dasharray="none" points="13.500,200.000 13.500,0.000 "/>
<g>
</g>
</g>
<g id="ID000007" >
      <polyline fill="none" stroke="#000000" stroke-width="1.5pt" stroke-dasharray="none" points="13.500,100.000 1350.000,100.000 "/>
<g>
</g>
</g>
    </g>
    <g>
      <polyline fill="none" stroke="#ffffff" stroke-width="1.5pt" stroke-dasharray="none" points="13.500,200.000 13.500,186.635 "/>
      <polyline fill="none" stroke="#ffffff" stroke-width="1.5pt" stroke-dasharray="none" points="825.239,200.000 825.239,186.635 "/>
      <polyline fill="none" stroke="#ffffff" stroke-width="1.5pt" stroke-dasharray="none" points="1350.000,200.000 1350.000,186.635 "/>
      <polyline fill="none" stroke="#ffffff" stroke-width="1.5pt" stroke-dasharray="none" points="13.500,200.000 1350.000,200.000 "/>
  <g transform="translate(13.500,215.800)">
    <g transform="rotate(-0.0)">
      <text x="0.000" y="0.000" font-family="Helvetica" text-anchor="middle" font-size="10pt" fill="#ffffff" >  1</text>
    </g>
  </g>
  <g transform="translate(825.239,215.800)">
    <g transform="rotate(-0.0)">
      <text x="0.000" y="0.000" font-family="Helvetica" text-anchor="middle" font-size="10pt" fill="#ffffff" >100</text>
    </g>
  </g>
  <g transform="translate(1350.000,215.800)">
    <g transform="rotate(-0.0)">
      <text x="0.000" y="0.000" font-family="Helvetica" text-anchor="middle" font-size="10pt" fill="#ffffff" >164</text>
    </g>
  </g>
      <polyline fill="none" stroke="#000000" stroke-width="1.5pt" stroke-dasharray="none" points="13.500,200.000 13.500,0.000 "/>
      <polyline fill="none" stroke="#000000" stroke-width="1.5pt" stroke-dasharray="none" points="13.500,200.000 13.500,198.000 "/>
      <polyline fill="none" stroke="#000000" stroke-width="1.5pt" stroke-dasharray="none" points="13.500,200.000 13.500,198.000 "/>
      <polyline fill="none" stroke="#000000" stroke-width="1.5pt" stroke-dasharray="none" points="13.500,200.000 13.500,198.000 "/>
      <polyline fill="none" stroke="#000000" stroke-width="1.5pt" stroke-dasharray="none" points="13.500,200.000 13.500,200.000 "/>
    </g>
  </g>
  </g>
</svg>
