<?xml version="1.0" encoding="utf-8" standalone="no"?><!DOCTYPE svg PUBLIC "-//W3C//DTD SVG 1.1//EN" "http://www.w3.org/Graphics/SVG/1.1/DTD/svg11.dtd">
<svg preserveAspectRatio="xMinYMin meet" width="100%" height="100%" viewBox="0 0 1350.000 200.000"  version="1.1" xmlns="http://www.w3.org/2000/svg" xmlns:xlink="http://www.w3.org/1999/xlink">
  <desc>Matlab Figure Converted by PLOT2SVG written by Juerg Schwizer</desc>
  <g id="topgroup">
  <rect x="0" y="0" width="1350.000" height="200.000" fill="#ffffff" stroke="none" />
  <g id ="ID000000">
  <clipPath id="ID000001">
    <rect x="13.500" y="0.000" width="1336.500" height="200.000"/>
  </clipPath>
      <polygon fill="#ffffff" fill-opacity="1.00" stroke="none" stroke-width="1.5pt" stroke-opacity="1.00" stroke-dasharray="none" points="13.500,200.000 1350.000,200.000 1350.000,0.000 13.500,0.000 "/>
      <polygon fill="#ffffff" fill-opacity="1.00" stroke="none" stroke-width="1.5pt" stroke-opacity="1.00" stroke-dasharray="none" points="13.500,0.000 1350.000,0.000 1350.000,0.000 13.500,0.000 "/>
      <polygon fill="#ffffff" fill-opacity="1.00" stroke="none" stroke-width="1.5pt" stroke-opacity="1.00" stroke-dasharray="none" points="13.500,200.000 13.500,200.000 13.500,0.000 13.500,0.000 "/>
    <g>
<g id="ID000002" clip-path="url(#ID000001)" >
      <polyline fill="none" stroke="#e09000" stroke-width="1.5pt" stroke-dasharray="none" points="13.500,87.031 21.699,102.088 29.899,102.981 38.098,90.217 46.298,139.404 54.497,110.141 62.696,133.283 70.896,105.981 79.095,127.044 87.294,200.000 95.494,58.830 103.693,103.357 111.893,188.562 120.092,187.167 128.291,164.024 136.491,76.950 144.690,129.908 152.890,159.975 161.089,83.762 169.288,78.148 177.488,78.128 185.687,93.019 193.887,162.434 202.086,90.095 210.285,53.618 218.485,69.512 226.684,115.470 234.883,152.667 243.083,120.444 251.282,129.386 259.482,19.255 267.681,0.000 275.880,61.040 284.080,130.286 292.279,187.890 300.479,138.195 308.678,118.158 316.877,71.993 325.077,76.232 333.276,180.878 341.475,151.756 349.675,61.277 357.874,28.505 366.074,100.298 374.273,110.334 382.472,108.543 390.672,54.097 398.871,119.751 407.071,111.407 415.270,140.027 423.469,110.910 431.669,125.189 439.868,133.516 448.067,163.768 456.267,93.762 464.466,85.231 472.666,164.610 480.865,152.456 489.064,169.193 497.264,187.194 505.463,70.514 513.663,96.192 521.862,153.107 530.061,99.314 538.261,101.040 546.460,92.006 554.660,143.896 562.859,70.571 571.058,141.383 579.258,123.934 587.457,70.802 595.656,95.420 603.856,43.264 612.055,27.490 620.255,83.206 628.454,118.261 636.653,92.252 644.853,89.131 653.052,89.231 661.252,114.706 669.451,121.083 677.650,63.498 685.850,42.502 694.049,74.062 702.248,98.082 710.448,63.846 718.647,123.495 726.847,118.213 735.046,118.262 743.245,134.081 751.445,150.738 759.644,52.796 767.844,61.368 776.043,99.726 784.242,183.737 792.442,159.698 800.641,197.811 808.840,72.041 817.040,110.335 825.239,134.647 833.439,129.218 841.638,118.686 849.837,104.594 858.037,149.059 866.236,27.412 874.436,144.741 882.635,172.169 890.834,143.734 899.034,133.331 907.233,128.621 915.433,103.626 923.632,113.084 931.831,181.240 940.031,97.665 948.230,169.802 956.429,103.949 964.629,113.904 972.828,101.154 981.028,97.299 989.227,171.404 997.426,106.427 1005.626,65.348 1013.825,107.886 1022.025,171.543 1030.224,120.264 1038.423,146.177 1046.623,59.553 1054.822,146.705 1063.021,178.370 1071.221,179.200 1079.420,127.660 1087.620,43.969 1095.819,80.357 1104.018,86.220 1112.218,53.752 1120.417,103.952 1128.617,139.273 1136.816,118.484 1145.015,118.964 1153.215,157.020 1161.414,143.534 1169.613,79.752 1177.813,38.366 1186.012,121.332 1194.212,0.000 1202.411,112.351 1210.610,149.356 1218.810,99.529 1227.009,128.047 1235.209,200.000 1243.408,138.587 1251.607,113.892 1259.807,52.251 1268.006,103.755 1276.206,138.275 1284.405,165.823 1292.604,165.766 1300.804,81.146 1309.003,71.933 1317.202,119.213 1325.402,114.773 1333.601,114.426 1341.801,117.227 1350.000,111.409 "/>
<g>
</g>
</g>
<g id="ID000003" >
</g>
<g id="ID000004" >
</g>
<g id="ID000005" >
</g>
<g id="ID000006" >
      <polyline fill="none" stroke="#000000" stroke-width="1.5pt" stroke-dasharray="none" points="13.500,200.000 13.500,0.000 "/>
<g>
</g>
</g>
<g id="ID000007" >
      <polyline fill="none" stroke="#000000" stroke-width="1.5pt" stroke-dasharray="none" points="13.500,100.000 1350.000,100.000 "/>
<g>
</g>
</g>
    </g>
    <g>
      <polyline fill="none" stroke="#ffffff" stroke-width="1.5pt" stroke-dasharray="none" points="13.500,200.000 13.500,186.635 "/>
      <polyline fill="none" stroke="#ffffff" stroke-width="1.5pt" stroke-dasharray="none" points="825.239,200.000 825.239,186.635 "/>
      <polyline fill="none" stroke="#ffffff" stroke-width="1.5pt" stroke-dasharray="none" points="1350.000,200.000 1350.000,186.635 "/>
      <polyline fill="none" stroke="#ffffff" stroke-width="1.5pt" stroke-dasharray="none" points="13.500,200.000 1350.000,200.000 "/>
  <g transform="translate(13.500,215.800)">
    <g transform="rotate(-0.0)">
      <text x="0.000" y="0.000" font-family="Helvetica" text-anchor="middle" font-size="10pt" fill="#ffffff" >  1</text>
    </g>
  </g>
  <g transform="translate(825.239,215.800)">
    <g transform="rotate(-0.0)">
      <text x="0.000" y="0.000" font-family="Helvetica" text-anchor="middle" font-size="10pt" fill="#ffffff" >100</text>
    </g>
  </g>
  <g transform="translate(1350.000,215.800)">
    <g transform="rotate(-0.0)">
      <text x="0.000" y="0.000" font-family="Helvetica" text-anchor="middle" font-size="10pt" fill="#ffffff" >164</text>
    </g>
  </g>
      <polyline fill="none" stroke="#000000" stroke-width="1.5pt" stroke-dasharray="none" points="13.500,200.000 13.500,0.000 "/>
      <polyline fill="none" stroke="#000000" stroke-width="1.5pt" stroke-dasharray="none" points="13.500,200.000 13.500,198.000 "/>
      <polyline fill="none" stroke="#000000" stroke-width="1.5pt" stroke-dasharray="none" points="13.500,200.000 13.500,198.000 "/>
      <polyline fill="none" stroke="#000000" stroke-width="1.5pt" stroke-dasharray="none" points="13.500,200.000 13.500,198.000 "/>
      <polyline fill="none" stroke="#000000" stroke-width="1.5pt" stroke-dasharray="none" points="13.500,200.000 13.500,200.000 "/>
    </g>
  </g>
  </g>
</svg>
