<?xml version="1.0" encoding="utf-8" standalone="no"?><!DOCTYPE svg PUBLIC "-//W3C//DTD SVG 1.1//EN" "http://www.w3.org/Graphics/SVG/1.1/DTD/svg11.dtd">
<svg preserveAspectRatio="xMinYMin meet" width="100%" height="100%" viewBox="0 0 400.000 300.000"  version="1.1" xmlns="http://www.w3.org/2000/svg" xmlns:xlink="http://www.w3.org/1999/xlink">
  <desc>Matlab Figure Converted by PLOT2SVG written by Juerg Schwizer</desc>
  <g id="topgroup">
  <rect x="0" y="0" width="400.000" height="300.000" fill="#ffffff" stroke="none" />
  <g id ="ID000000">
  <clipPath id="ID000001">
    <rect x="80.000" y="9.000" width="316.000" height="225.000"/>
  </clipPath>
      <polygon fill="#ffffff" fill-opacity="1.00" stroke="none" stroke-width="2.0pt" stroke-opacity="1.00" stroke-dasharray="none" points="80.000,234.000 396.000,234.000 396.000,9.000 80.000,9.000 "/>
      <polygon fill="#ffffff" fill-opacity="1.00" stroke="none" stroke-width="2.0pt" stroke-opacity="1.00" stroke-dasharray="none" points="80.000,234.000 396.000,234.000 396.000,234.000 80.000,234.000 "/>
      <polygon fill="#ffffff" fill-opacity="1.00" stroke="none" stroke-width="2.0pt" stroke-opacity="1.00" stroke-dasharray="none" points="80.000,234.000 80.000,234.000 80.000,9.000 80.000,9.000 "/>
    <g>
<g id="ID000002" clip-path="url(#ID000001)" >
      <polyline fill="none" stroke="#000000" stroke-width="2.0pt" stroke-dasharray="none" points="80.000,189.000 396.000,189.000 "/>
<g>
</g>
</g>
<g id="ID000003" >
  <g transform="translate(185.026,34.412)">
    <g transform="rotate(-90.0)">
      <text x="0.000" y="0.000" font-family="Courier" text-anchor="start" font-size="18pt" font-weight="bold" fill="#000000" >*</text>
    </g>
  </g>
</g>
<g id="ID000004" >
  <g transform="translate(242.220,253.950)">
    <g transform="rotate(-0.0)">
      <text x="0.000" y="0.000" font-family="Helvetica" text-anchor="end" font-size="15pt" fill="#000000" >representation</text>
    </g>
  </g>
</g>
<g id="ID000005" >
  <g transform="translate(357.389,253.950)">
    <g transform="rotate(-0.0)">
      <text x="0.000" y="0.000" font-family="Helvetica" text-anchor="end" font-size="15pt" fill="#000000" >manipulation</text>
    </g>
  </g>
</g>
<g id="ID000006" clip-path="url(#ID000001)" >
      <polygon fill="#007fff" fill-opacity="1.00" stroke="none" stroke-width="0.0pt" stroke-opacity="1.00" stroke-dasharray="none" points="273.853,189.000 273.853,167.230 324.295,167.230 324.295,189.000 "/>
</g>
<g id="ID000007" clip-path="url(#ID000001)" >
      <polygon fill="#ff0000" fill-opacity="1.00" stroke="none" stroke-width="0.0pt" stroke-opacity="1.00" stroke-dasharray="none" points="151.705,189.000 151.705,74.416 202.147,74.416 202.147,189.000 "/>
</g>
<g id="ID000008" >
      <polyline fill="none" stroke="#000000" stroke-width="2.0pt" stroke-dasharray="none" points="299.074,190.384 299.074,144.077 "/>
<g>
</g>
</g>
<g id="ID000009" >
      <polyline fill="none" stroke="#000000" stroke-width="2.0pt" stroke-dasharray="none" points="176.926,106.953 176.926,41.879 "/>
<g>
</g>
</g>
<g id="ID000010" >
      <polyline fill="none" stroke="#000000" stroke-width="2.0pt" stroke-dasharray="none" points="80.000,234.000 396.000,234.000 "/>
<g>
</g>
</g>
<g id="ID000011" >
      <polyline fill="none" stroke="#000000" stroke-width="2.0pt" stroke-dasharray="none" points="80.000,234.000 80.000,9.000 "/>
<g>
</g>
</g>
<g id="ID000012" >
</g>
<g id="ID000013" >
  <g transform="translate(28.000,123.500)">
    <g transform="rotate(-90.0)">
      <text x="0.000" y="0.000" font-family="Helvetica" text-anchor="middle" font-size="18pt" fill="#000000" >Fisher's z(r)</text>
    </g>
  </g>
</g>
<g id="ID000014" >
</g>
    </g>
    <g>
      <polyline fill="none" stroke="#000000" stroke-width="2.0pt" stroke-dasharray="none" points="80.000,234.000 396.000,234.000 "/>
      <polyline fill="none" stroke="#000000" stroke-width="2.0pt" stroke-dasharray="none" points="80.000,234.000 83.160,234.000 "/>
      <polyline fill="none" stroke="#000000" stroke-width="2.0pt" stroke-dasharray="none" points="80.000,189.000 83.160,189.000 "/>
      <polyline fill="none" stroke="#000000" stroke-width="2.0pt" stroke-dasharray="none" points="80.000,144.000 83.160,144.000 "/>
      <polyline fill="none" stroke="#000000" stroke-width="2.0pt" stroke-dasharray="none" points="80.000,99.000 83.160,99.000 "/>
      <polyline fill="none" stroke="#000000" stroke-width="2.0pt" stroke-dasharray="none" points="80.000,54.000 83.160,54.000 "/>
      <polyline fill="none" stroke="#000000" stroke-width="2.0pt" stroke-dasharray="none" points="80.000,9.000 83.160,9.000 "/>
      <polyline fill="none" stroke="#000000" stroke-width="2.0pt" stroke-dasharray="none" points="80.000,234.000 80.000,9.000 "/>
  <g transform="translate(73.680,240.750)">
    <g transform="rotate(-0.0)">
      <text x="0.000" y="0.000" font-family="Helvetica" text-anchor="end" font-size="15pt" fill="#000000" >-0.3</text>
    </g>
  </g>
  <g transform="translate(73.680,195.750)">
    <g transform="rotate(-0.0)">
      <text x="0.000" y="0.000" font-family="Helvetica" text-anchor="end" font-size="15pt" fill="#000000" >0</text>
    </g>
  </g>
  <g transform="translate(73.680,150.750)">
    <g transform="rotate(-0.0)">
      <text x="0.000" y="0.000" font-family="Helvetica" text-anchor="end" font-size="15pt" fill="#000000" >0.3</text>
    </g>
  </g>
  <g transform="translate(73.680,105.750)">
    <g transform="rotate(-0.0)">
      <text x="0.000" y="0.000" font-family="Helvetica" text-anchor="end" font-size="15pt" fill="#000000" >0.6</text>
    </g>
  </g>
  <g transform="translate(73.680,60.750)">
    <g transform="rotate(-0.0)">
      <text x="0.000" y="0.000" font-family="Helvetica" text-anchor="end" font-size="15pt" fill="#000000" >0.9</text>
    </g>
  </g>
  <g transform="translate(73.680,15.750)">
    <g transform="rotate(-0.0)">
      <text x="0.000" y="0.000" font-family="Helvetica" text-anchor="end" font-size="15pt" fill="#000000" >1.2</text>
    </g>
  </g>
      <polyline fill="none" stroke="#000000" stroke-width="2.0pt" stroke-dasharray="none" points="80.000,234.000 80.000,231.750 "/>
      <polyline fill="none" stroke="#000000" stroke-width="2.0pt" stroke-dasharray="none" points="80.000,234.000 80.000,231.750 "/>
      <polyline fill="none" stroke="#000000" stroke-width="2.0pt" stroke-dasharray="none" points="80.000,234.000 80.000,231.750 "/>
      <polyline fill="none" stroke="#000000" stroke-width="2.0pt" stroke-dasharray="none" points="80.000,234.000 80.000,234.000 "/>
    </g>
  </g>
  </g>
</svg>
