<?xml version="1.0" encoding="utf-8" standalone="no"?><!DOCTYPE svg PUBLIC "-//W3C//DTD SVG 1.1//EN" "http://www.w3.org/Graphics/SVG/1.1/DTD/svg11.dtd">
<svg preserveAspectRatio="xMinYMin meet" width="100%" height="100%" viewBox="0 0 1350.000 200.000"  version="1.1" xmlns="http://www.w3.org/2000/svg" xmlns:xlink="http://www.w3.org/1999/xlink">
  <desc>Matlab Figure Converted by PLOT2SVG written by Juerg Schwizer</desc>
  <g id="topgroup">
  <rect x="0" y="0" width="1350.000" height="200.000" fill="#ffffff" stroke="none" />
  <g id ="ID000000">
  <clipPath id="ID000001">
    <rect x="13.500" y="0.000" width="1336.500" height="200.000"/>
  </clipPath>
      <polygon fill="#ffffff" fill-opacity="1.00" stroke="none" stroke-width="1.5pt" stroke-opacity="1.00" stroke-dasharray="none" points="13.500,200.000 1350.000,200.000 1350.000,0.000 13.500,0.000 "/>
      <polygon fill="#ffffff" fill-opacity="1.00" stroke="none" stroke-width="1.5pt" stroke-opacity="1.00" stroke-dasharray="none" points="13.500,0.000 1350.000,0.000 1350.000,0.000 13.500,0.000 "/>
      <polygon fill="#ffffff" fill-opacity="1.00" stroke="none" stroke-width="1.5pt" stroke-opacity="1.00" stroke-dasharray="none" points="13.500,200.000 13.500,200.000 13.500,0.000 13.500,0.000 "/>
    <g>
<g id="ID000002" clip-path="url(#ID000001)" >
      <polyline fill="none" stroke="#00a000" stroke-width="1.5pt" stroke-dasharray="none" points="13.500,13.598 21.699,52.036 29.899,124.182 38.098,122.242 46.298,43.549 54.497,15.530 62.696,55.899 70.896,104.308 79.095,102.928 87.294,89.954 95.494,107.914 103.693,157.499 111.893,199.142 120.092,195.941 128.291,177.835 136.491,146.877 144.690,136.133 152.890,147.956 161.089,154.389 169.288,81.106 177.488,97.212 185.687,151.469 193.887,134.592 202.086,81.095 210.285,18.560 218.485,28.927 226.684,93.202 234.883,139.535 243.083,111.312 251.282,49.316 259.482,149.842 267.681,200.000 275.880,182.095 284.080,49.687 292.279,0.000 300.479,2.764 308.678,76.115 316.877,144.955 325.077,132.559 333.276,120.594 341.475,125.425 349.675,151.648 357.874,124.848 366.074,57.497 374.273,7.819 382.472,8.354 390.672,100.185 398.871,169.478 407.071,144.752 415.270,83.661 423.469,110.290 431.669,154.156 439.868,133.111 448.067,92.827 456.267,59.944 464.466,37.863 472.666,76.729 480.865,142.055 489.064,198.223 497.264,140.889 505.463,134.416 513.663,109.748 521.862,82.961 530.061,44.341 538.261,55.150 546.460,27.740 554.660,58.310 562.859,115.044 571.058,125.525 579.258,130.322 587.457,155.805 595.656,134.016 603.856,95.451 612.055,92.745 620.255,56.473 628.454,47.719 636.653,88.598 644.853,132.259 653.052,161.591 661.252,147.241 669.451,164.150 677.650,156.036 685.850,104.884 694.049,44.092 702.248,43.195 710.448,54.576 718.647,80.080 726.847,145.729 735.046,116.955 743.245,91.381 751.445,97.348 759.644,176.039 767.844,182.232 776.043,101.621 784.242,50.449 792.442,23.762 800.641,74.446 808.840,190.771 817.040,200.000 825.239,155.108 833.439,135.840 841.638,141.689 849.837,118.545 858.037,60.297 866.236,24.641 874.436,3.941 882.635,52.991 890.834,117.730 899.034,177.170 907.233,154.963 915.433,133.887 923.632,120.820 931.831,92.029 940.031,92.358 948.230,69.507 956.429,99.359 964.629,114.014 972.828,157.770 981.028,165.781 989.227,97.138 997.426,102.361 1005.626,97.300 1013.825,84.547 1022.025,57.480 1030.224,54.358 1038.423,49.817 1046.623,134.479 1054.822,151.337 1063.021,125.080 1071.221,58.000 1079.420,79.307 1087.620,147.101 1095.819,161.475 1104.018,137.475 1112.218,50.372 1120.417,21.775 1128.617,59.273 1136.816,103.721 1145.015,126.897 1153.215,119.955 1161.414,107.510 1169.613,94.116 1177.813,86.289 1186.012,63.041 1194.212,77.369 1202.411,45.279 1210.610,99.710 1218.810,137.345 1227.009,140.252 1235.209,100.283 1243.408,134.440 1251.607,148.603 1259.807,145.615 1268.006,68.112 1276.206,23.589 1284.405,0.000 1292.604,40.119 1300.804,129.123 1309.003,173.797 1317.202,141.800 1325.402,124.767 1333.601,130.334 1341.801,147.746 1350.000,117.245 "/>
<g>
</g>
</g>
<g id="ID000003" >
</g>
<g id="ID000004" >
</g>
<g id="ID000005" >
</g>
<g id="ID000006" >
      <polyline fill="none" stroke="#000000" stroke-width="1.5pt" stroke-dasharray="none" points="13.500,200.000 13.500,0.000 "/>
<g>
</g>
</g>
<g id="ID000007" >
      <polyline fill="none" stroke="#000000" stroke-width="1.5pt" stroke-dasharray="none" points="13.500,100.000 1350.000,100.000 "/>
<g>
</g>
</g>
    </g>
    <g>
      <polyline fill="none" stroke="#ffffff" stroke-width="1.5pt" stroke-dasharray="none" points="13.500,200.000 13.500,186.635 "/>
      <polyline fill="none" stroke="#ffffff" stroke-width="1.5pt" stroke-dasharray="none" points="825.239,200.000 825.239,186.635 "/>
      <polyline fill="none" stroke="#ffffff" stroke-width="1.5pt" stroke-dasharray="none" points="1350.000,200.000 1350.000,186.635 "/>
      <polyline fill="none" stroke="#ffffff" stroke-width="1.5pt" stroke-dasharray="none" points="13.500,200.000 1350.000,200.000 "/>
  <g transform="translate(13.500,215.800)">
    <g transform="rotate(-0.0)">
      <text x="0.000" y="0.000" font-family="Helvetica" text-anchor="middle" font-size="10pt" fill="#ffffff" >  1</text>
    </g>
  </g>
  <g transform="translate(825.239,215.800)">
    <g transform="rotate(-0.0)">
      <text x="0.000" y="0.000" font-family="Helvetica" text-anchor="middle" font-size="10pt" fill="#ffffff" >100</text>
    </g>
  </g>
  <g transform="translate(1350.000,215.800)">
    <g transform="rotate(-0.0)">
      <text x="0.000" y="0.000" font-family="Helvetica" text-anchor="middle" font-size="10pt" fill="#ffffff" >164</text>
    </g>
  </g>
      <polyline fill="none" stroke="#000000" stroke-width="1.5pt" stroke-dasharray="none" points="13.500,200.000 13.500,0.000 "/>
      <polyline fill="none" stroke="#000000" stroke-width="1.5pt" stroke-dasharray="none" points="13.500,200.000 13.500,198.000 "/>
      <polyline fill="none" stroke="#000000" stroke-width="1.5pt" stroke-dasharray="none" points="13.500,200.000 13.500,198.000 "/>
      <polyline fill="none" stroke="#000000" stroke-width="1.5pt" stroke-dasharray="none" points="13.500,200.000 13.500,198.000 "/>
      <polyline fill="none" stroke="#000000" stroke-width="1.5pt" stroke-dasharray="none" points="13.500,200.000 13.500,200.000 "/>
    </g>
  </g>
  </g>
</svg>
