<?xml version="1.0" encoding="utf-8" standalone="no"?><!DOCTYPE svg PUBLIC "-//W3C//DTD SVG 1.1//EN" "http://www.w3.org/Graphics/SVG/1.1/DTD/svg11.dtd">
<svg preserveAspectRatio="xMinYMin meet" width="100%" height="100%" viewBox="0 0 1350.000 200.000"  version="1.1" xmlns="http://www.w3.org/2000/svg" xmlns:xlink="http://www.w3.org/1999/xlink">
  <desc>Matlab Figure Converted by PLOT2SVG written by Juerg Schwizer</desc>
  <g id="topgroup">
  <rect x="0" y="0" width="1350.000" height="200.000" fill="#ffffff" stroke="none" />
  <g id ="ID000000">
  <clipPath id="ID000001">
    <rect x="13.500" y="0.000" width="1336.500" height="200.000"/>
  </clipPath>
      <polygon fill="#ffffff" fill-opacity="1.00" stroke="none" stroke-width="1.5pt" stroke-opacity="1.00" stroke-dasharray="none" points="13.500,200.000 1350.000,200.000 1350.000,0.000 13.500,0.000 "/>
      <polygon fill="#ffffff" fill-opacity="1.00" stroke="none" stroke-width="1.5pt" stroke-opacity="1.00" stroke-dasharray="none" points="13.500,0.000 1350.000,0.000 1350.000,0.000 13.500,0.000 "/>
      <polygon fill="#ffffff" fill-opacity="1.00" stroke="none" stroke-width="1.5pt" stroke-opacity="1.00" stroke-dasharray="none" points="13.500,200.000 13.500,200.000 13.500,0.000 13.500,0.000 "/>
    <g>
<g id="ID000002" clip-path="url(#ID000001)" >
      <polyline fill="none" stroke="#e09000" stroke-width="1.5pt" stroke-dasharray="none" points="13.500,67.593 21.699,124.001 29.899,133.012 38.098,55.229 46.298,33.256 54.497,76.021 62.696,129.899 70.896,121.373 79.095,101.716 87.294,85.262 95.494,89.668 103.693,92.040 111.893,98.959 120.092,125.022 128.291,157.278 136.491,147.020 144.690,154.172 152.890,144.411 161.089,93.971 169.288,103.457 177.488,84.475 185.687,87.285 193.887,122.118 202.086,108.383 210.285,68.877 218.485,87.488 226.684,90.467 234.883,95.729 243.083,79.076 251.282,102.651 259.482,132.268 267.681,94.652 275.880,17.916 284.080,17.282 292.279,67.467 300.479,106.755 308.678,188.845 316.877,175.161 325.077,99.611 333.276,69.855 341.475,85.737 349.675,100.756 357.874,80.137 366.074,38.791 374.273,37.123 382.472,139.212 390.672,164.635 398.871,182.416 407.071,99.183 415.270,59.740 423.469,99.465 431.669,83.885 439.868,52.009 448.067,23.243 456.267,26.728 464.466,39.068 472.666,124.755 480.865,171.984 489.064,108.244 497.264,89.423 505.463,56.370 513.663,65.283 521.862,68.289 530.061,102.612 538.261,97.575 546.460,111.560 554.660,182.799 562.859,200.000 571.058,136.483 579.258,85.113 587.457,92.396 595.656,110.243 603.856,138.736 612.055,101.692 620.255,98.194 628.454,82.616 636.653,168.857 644.853,156.569 653.052,133.219 661.252,126.138 669.451,140.692 677.650,88.588 685.850,38.679 694.049,54.391 702.248,31.635 710.448,34.513 718.647,95.271 726.847,137.982 735.046,143.966 743.245,106.712 751.445,119.017 759.644,155.296 767.844,102.186 776.043,91.996 784.242,5.062 792.442,22.560 800.641,136.914 808.840,163.179 817.040,123.052 825.239,110.977 833.439,104.711 841.638,92.698 849.837,54.836 858.037,16.621 866.236,0.000 874.436,3.226 882.635,59.952 890.834,170.374 899.034,200.000 907.233,140.601 915.433,113.187 923.632,109.602 931.831,106.600 940.031,74.451 948.230,40.907 956.429,59.043 964.629,118.321 972.828,168.451 981.028,145.937 989.227,83.866 997.426,57.028 1005.626,136.834 1013.825,110.104 1022.025,84.933 1030.224,68.751 1038.423,77.144 1046.623,132.647 1054.822,132.776 1063.021,105.701 1071.221,82.272 1079.420,117.455 1087.620,151.131 1095.819,194.287 1104.018,102.368 1112.218,77.710 1120.417,94.999 1128.617,162.040 1136.816,130.945 1145.015,106.804 1153.215,105.508 1161.414,105.122 1169.613,108.150 1177.813,40.679 1186.012,71.061 1194.212,27.297 1202.411,73.524 1210.610,99.051 1218.810,137.580 1227.009,153.007 1235.209,122.830 1243.408,116.178 1251.607,93.186 1259.807,61.365 1268.006,25.296 1276.206,0.000 1284.405,56.424 1292.604,105.620 1300.804,150.548 1309.003,116.847 1317.202,112.036 1325.402,139.676 1333.601,149.087 1341.801,114.700 1350.000,86.605 "/>
<g>
</g>
</g>
<g id="ID000003" >
</g>
<g id="ID000004" >
</g>
<g id="ID000005" >
</g>
<g id="ID000006" >
      <polyline fill="none" stroke="#000000" stroke-width="1.5pt" stroke-dasharray="none" points="13.500,200.000 13.500,0.000 "/>
<g>
</g>
</g>
<g id="ID000007" >
      <polyline fill="none" stroke="#000000" stroke-width="1.5pt" stroke-dasharray="none" points="13.500,100.000 1350.000,100.000 "/>
<g>
</g>
</g>
    </g>
    <g>
      <polyline fill="none" stroke="#ffffff" stroke-width="1.5pt" stroke-dasharray="none" points="13.500,200.000 13.500,186.635 "/>
      <polyline fill="none" stroke="#ffffff" stroke-width="1.5pt" stroke-dasharray="none" points="825.239,200.000 825.239,186.635 "/>
      <polyline fill="none" stroke="#ffffff" stroke-width="1.5pt" stroke-dasharray="none" points="1350.000,200.000 1350.000,186.635 "/>
      <polyline fill="none" stroke="#ffffff" stroke-width="1.5pt" stroke-dasharray="none" points="13.500,200.000 1350.000,200.000 "/>
  <g transform="translate(13.500,215.800)">
    <g transform="rotate(-0.0)">
      <text x="0.000" y="0.000" font-family="Helvetica" text-anchor="middle" font-size="10pt" fill="#ffffff" >  1</text>
    </g>
  </g>
  <g transform="translate(825.239,215.800)">
    <g transform="rotate(-0.0)">
      <text x="0.000" y="0.000" font-family="Helvetica" text-anchor="middle" font-size="10pt" fill="#ffffff" >100</text>
    </g>
  </g>
  <g transform="translate(1350.000,215.800)">
    <g transform="rotate(-0.0)">
      <text x="0.000" y="0.000" font-family="Helvetica" text-anchor="middle" font-size="10pt" fill="#ffffff" >164</text>
    </g>
  </g>
      <polyline fill="none" stroke="#000000" stroke-width="1.5pt" stroke-dasharray="none" points="13.500,200.000 13.500,0.000 "/>
      <polyline fill="none" stroke="#000000" stroke-width="1.5pt" stroke-dasharray="none" points="13.500,200.000 13.500,198.000 "/>
      <polyline fill="none" stroke="#000000" stroke-width="1.5pt" stroke-dasharray="none" points="13.500,200.000 13.500,198.000 "/>
      <polyline fill="none" stroke="#000000" stroke-width="1.5pt" stroke-dasharray="none" points="13.500,200.000 13.500,198.000 "/>
      <polyline fill="none" stroke="#000000" stroke-width="1.5pt" stroke-dasharray="none" points="13.500,200.000 13.500,200.000 "/>
    </g>
  </g>
  </g>
</svg>
