<?xml version="1.0" encoding="utf-8" standalone="no"?><!DOCTYPE svg PUBLIC "-//W3C//DTD SVG 1.1//EN" "http://www.w3.org/Graphics/SVG/1.1/DTD/svg11.dtd">
<svg preserveAspectRatio="xMinYMin meet" width="100%" height="100%" viewBox="0 0 1350.000 200.000"  version="1.1" xmlns="http://www.w3.org/2000/svg" xmlns:xlink="http://www.w3.org/1999/xlink">
  <desc>Matlab Figure Converted by PLOT2SVG written by Juerg Schwizer</desc>
  <g id="topgroup">
  <rect x="0" y="0" width="1350.000" height="200.000" fill="#ffffff" stroke="none" />
  <g id ="ID000000">
  <clipPath id="ID000001">
    <rect x="13.500" y="0.000" width="1336.500" height="200.000"/>
  </clipPath>
      <polygon fill="#ffffff" fill-opacity="1.00" stroke="none" stroke-width="1.5pt" stroke-opacity="1.00" stroke-dasharray="none" points="13.500,200.000 1350.000,200.000 1350.000,0.000 13.500,0.000 "/>
      <polygon fill="#ffffff" fill-opacity="1.00" stroke="none" stroke-width="1.5pt" stroke-opacity="1.00" stroke-dasharray="none" points="13.500,0.000 1350.000,0.000 1350.000,0.000 13.500,0.000 "/>
      <polygon fill="#ffffff" fill-opacity="1.00" stroke="none" stroke-width="1.5pt" stroke-opacity="1.00" stroke-dasharray="none" points="13.500,200.000 13.500,200.000 13.500,0.000 13.500,0.000 "/>
    <g>
<g id="ID000002" clip-path="url(#ID000001)" >
      <polyline fill="none" stroke="#e09000" stroke-width="1.5pt" stroke-dasharray="none" points="13.500,200.000 21.699,115.696 29.899,12.855 38.098,0.000 46.298,39.971 54.497,153.980 62.696,151.277 70.896,115.056 79.095,136.721 87.294,181.960 95.494,200.000 103.693,118.471 111.893,52.963 120.092,75.008 128.291,84.442 136.491,106.437 144.690,103.325 152.890,83.743 161.089,83.142 169.288,147.794 177.488,175.206 185.687,124.571 193.887,92.038 202.086,106.746 210.285,132.920 218.485,133.729 226.684,69.240 234.883,28.626 243.083,89.498 251.282,143.711 259.482,122.758 267.681,28.493 275.880,5.985 284.080,75.554 292.279,152.708 300.479,187.399 308.678,186.909 316.877,123.406 325.077,72.977 333.276,108.959 341.475,150.588 349.675,130.042 357.874,111.545 366.074,106.245 374.273,154.747 382.472,195.278 390.672,141.490 398.871,45.496 407.071,49.266 415.270,135.052 423.469,198.111 431.669,150.401 439.868,115.211 448.067,112.403 456.267,145.370 464.466,167.918 472.666,137.712 480.865,56.915 489.064,0.000 497.264,73.195 505.463,124.493 513.663,122.494 521.862,120.353 530.061,132.980 538.261,130.140 546.460,125.410 554.660,124.933 562.859,106.779 571.058,95.450 579.258,138.084 587.457,157.281 595.656,140.949 603.856,112.292 612.055,72.584 620.255,63.282 628.454,105.925 636.653,139.325 644.853,111.533 653.052,94.557 661.252,141.918 669.451,158.815 677.650,144.973 685.850,151.511 694.049,147.996 702.248,92.240 710.448,96.396 718.647,129.459 726.847,130.689 735.046,137.921 743.245,149.543 751.445,147.139 759.644,74.272 767.844,14.933 776.043,50.457 784.242,105.844 792.442,171.250 800.641,177.239 808.840,69.010 817.040,22.127 825.239,83.108 833.439,148.725 841.638,149.562 849.837,102.715 858.037,88.545 866.236,119.384 874.436,172.683 882.635,187.431 890.834,130.881 899.034,53.132 907.233,46.896 915.433,93.665 923.632,104.469 931.831,87.367 940.031,92.663 948.230,81.255 956.429,86.865 964.629,94.963 972.828,84.505 981.028,46.797 989.227,79.973 997.426,133.791 1005.626,138.022 1013.825,122.212 1022.025,123.380 1030.224,116.965 1038.423,92.433 1046.623,39.593 1054.822,34.457 1063.021,92.695 1071.221,145.874 1079.420,161.904 1087.620,118.228 1095.819,46.222 1104.018,33.267 1112.218,93.567 1120.417,136.831 1128.617,139.774 1136.816,112.773 1145.015,102.480 1153.215,116.001 1161.414,142.522 1169.613,144.697 1177.813,107.953 1186.012,118.592 1194.212,118.695 1202.411,133.643 1210.610,132.980 1218.810,123.124 1227.009,113.720 1235.209,114.772 1243.408,128.859 1251.607,98.148 1259.807,57.795 1268.006,61.326 1276.206,110.023 1284.405,168.075 1292.604,166.204 1300.804,114.240 1309.003,62.653 1317.202,88.746 1325.402,128.365 1333.601,105.232 1341.801,69.549 1350.000,72.920 "/>
<g>
</g>
</g>
<g id="ID000003" >
</g>
<g id="ID000004" >
</g>
<g id="ID000005" >
</g>
<g id="ID000006" >
      <polyline fill="none" stroke="#000000" stroke-width="1.5pt" stroke-dasharray="none" points="13.500,200.000 13.500,0.000 "/>
<g>
</g>
</g>
<g id="ID000007" >
      <polyline fill="none" stroke="#000000" stroke-width="1.5pt" stroke-dasharray="none" points="13.500,100.000 1350.000,100.000 "/>
<g>
</g>
</g>
    </g>
    <g>
      <polyline fill="none" stroke="#ffffff" stroke-width="1.5pt" stroke-dasharray="none" points="13.500,200.000 13.500,186.635 "/>
      <polyline fill="none" stroke="#ffffff" stroke-width="1.5pt" stroke-dasharray="none" points="825.239,200.000 825.239,186.635 "/>
      <polyline fill="none" stroke="#ffffff" stroke-width="1.5pt" stroke-dasharray="none" points="1350.000,200.000 1350.000,186.635 "/>
      <polyline fill="none" stroke="#ffffff" stroke-width="1.5pt" stroke-dasharray="none" points="13.500,200.000 1350.000,200.000 "/>
  <g transform="translate(13.500,215.800)">
    <g transform="rotate(-0.0)">
      <text x="0.000" y="0.000" font-family="Helvetica" text-anchor="middle" font-size="10pt" fill="#ffffff" >  1</text>
    </g>
  </g>
  <g transform="translate(825.239,215.800)">
    <g transform="rotate(-0.0)">
      <text x="0.000" y="0.000" font-family="Helvetica" text-anchor="middle" font-size="10pt" fill="#ffffff" >100</text>
    </g>
  </g>
  <g transform="translate(1350.000,215.800)">
    <g transform="rotate(-0.0)">
      <text x="0.000" y="0.000" font-family="Helvetica" text-anchor="middle" font-size="10pt" fill="#ffffff" >164</text>
    </g>
  </g>
      <polyline fill="none" stroke="#000000" stroke-width="1.5pt" stroke-dasharray="none" points="13.500,200.000 13.500,0.000 "/>
      <polyline fill="none" stroke="#000000" stroke-width="1.5pt" stroke-dasharray="none" points="13.500,200.000 13.500,198.000 "/>
      <polyline fill="none" stroke="#000000" stroke-width="1.5pt" stroke-dasharray="none" points="13.500,200.000 13.500,198.000 "/>
      <polyline fill="none" stroke="#000000" stroke-width="1.5pt" stroke-dasharray="none" points="13.500,200.000 13.500,198.000 "/>
      <polyline fill="none" stroke="#000000" stroke-width="1.5pt" stroke-dasharray="none" points="13.500,200.000 13.500,200.000 "/>
    </g>
  </g>
  </g>
</svg>
