<?xml version="1.0" encoding="utf-8" standalone="no"?><!DOCTYPE svg PUBLIC "-//W3C//DTD SVG 1.1//EN" "http://www.w3.org/Graphics/SVG/1.1/DTD/svg11.dtd">
<svg preserveAspectRatio="xMinYMin meet" width="100%" height="100%" viewBox="0 0 1350.000 200.000"  version="1.1" xmlns="http://www.w3.org/2000/svg" xmlns:xlink="http://www.w3.org/1999/xlink">
  <desc>Matlab Figure Converted by PLOT2SVG written by Juerg Schwizer</desc>
  <g id="topgroup">
  <rect x="0" y="0" width="1350.000" height="200.000" fill="#ffffff" stroke="none" />
  <g id ="ID000000">
  <clipPath id="ID000001">
    <rect x="13.500" y="0.000" width="1336.500" height="200.000"/>
  </clipPath>
      <polygon fill="#ffffff" fill-opacity="1.00" stroke="none" stroke-width="1.5pt" stroke-opacity="1.00" stroke-dasharray="none" points="13.500,200.000 1350.000,200.000 1350.000,0.000 13.500,0.000 "/>
      <polygon fill="#ffffff" fill-opacity="1.00" stroke="none" stroke-width="1.5pt" stroke-opacity="1.00" stroke-dasharray="none" points="13.500,0.000 1350.000,0.000 1350.000,0.000 13.500,0.000 "/>
      <polygon fill="#ffffff" fill-opacity="1.00" stroke="none" stroke-width="1.5pt" stroke-opacity="1.00" stroke-dasharray="none" points="13.500,200.000 13.500,200.000 13.500,0.000 13.500,0.000 "/>
    <g>
<g id="ID000002" clip-path="url(#ID000001)" >
      <polyline fill="none" stroke="#e09000" stroke-width="1.5pt" stroke-dasharray="none" points="13.500,191.927 21.699,185.134 29.899,42.712 38.098,92.042 46.298,20.301 54.497,61.094 62.696,55.604 70.896,33.121 79.095,34.312 87.294,80.634 95.494,62.883 103.693,95.838 111.893,180.799 120.092,163.091 128.291,139.186 136.491,129.992 144.690,114.818 152.890,100.013 161.089,168.444 169.288,112.103 177.488,90.324 185.687,164.843 193.887,26.389 202.086,52.664 210.285,126.600 218.485,131.300 226.684,92.597 234.883,58.806 243.083,51.828 251.282,138.602 259.482,120.351 267.681,111.824 275.880,127.678 284.080,106.663 292.279,132.321 300.479,68.204 308.678,87.694 316.877,165.276 325.077,129.308 333.276,132.718 341.475,56.162 349.675,137.799 357.874,124.414 366.074,175.059 374.273,200.000 382.472,174.502 390.672,85.061 398.871,145.188 407.071,31.839 415.270,83.329 423.469,100.954 431.669,152.467 439.868,0.000 448.067,100.604 456.267,124.899 464.466,107.089 472.666,92.699 480.865,130.947 489.064,103.946 497.264,0.000 505.463,138.179 513.663,159.709 521.862,141.338 530.061,178.803 538.261,118.298 546.460,46.275 554.660,103.007 562.859,152.319 571.058,119.856 579.258,142.871 587.457,107.543 595.656,87.818 603.856,88.855 612.055,21.766 620.255,103.996 628.454,153.399 636.653,107.363 644.853,75.184 653.052,138.653 661.252,151.417 669.451,157.300 677.650,117.533 685.850,160.597 694.049,96.310 702.248,138.982 710.448,176.942 718.647,69.233 726.847,107.153 735.046,120.932 743.245,124.970 751.445,121.897 759.644,184.428 767.844,147.244 776.043,29.467 784.242,45.425 792.442,95.369 800.641,57.272 808.840,81.267 817.040,121.320 825.239,72.943 833.439,133.166 841.638,117.844 849.837,18.878 858.037,28.331 866.236,45.229 874.436,34.071 882.635,55.250 890.834,79.934 899.034,172.550 907.233,59.142 915.433,63.870 923.632,197.081 931.831,102.870 940.031,85.038 948.230,45.766 956.429,48.489 964.629,112.560 972.828,174.691 981.028,64.188 989.227,54.403 997.426,89.954 1005.626,108.186 1013.825,115.822 1022.025,0.677 1030.224,25.596 1038.423,147.291 1046.623,200.000 1054.822,109.286 1063.021,79.355 1071.221,61.429 1079.420,116.886 1087.620,112.771 1095.819,25.419 1104.018,69.942 1112.218,67.595 1120.417,100.695 1128.617,161.243 1136.816,148.565 1145.015,73.944 1153.215,111.759 1161.414,39.397 1169.613,63.339 1177.813,100.721 1186.012,64.636 1194.212,95.104 1202.411,163.011 1210.610,168.510 1218.810,117.815 1227.009,104.931 1235.209,123.537 1243.408,74.872 1251.607,123.806 1259.807,86.330 1268.006,119.998 1276.206,165.696 1284.405,85.675 1292.604,55.395 1300.804,84.589 1309.003,93.757 1317.202,51.707 1325.402,99.952 1333.601,131.920 1341.801,104.637 1350.000,108.465 "/>
<g>
</g>
</g>
<g id="ID000003" >
</g>
<g id="ID000004" >
</g>
<g id="ID000005" >
</g>
<g id="ID000006" >
      <polyline fill="none" stroke="#000000" stroke-width="1.5pt" stroke-dasharray="none" points="13.500,200.000 13.500,0.000 "/>
<g>
</g>
</g>
<g id="ID000007" >
      <polyline fill="none" stroke="#000000" stroke-width="1.5pt" stroke-dasharray="none" points="13.500,100.000 1350.000,100.000 "/>
<g>
</g>
</g>
    </g>
    <g>
      <polyline fill="none" stroke="#ffffff" stroke-width="1.5pt" stroke-dasharray="none" points="13.500,200.000 13.500,186.635 "/>
      <polyline fill="none" stroke="#ffffff" stroke-width="1.5pt" stroke-dasharray="none" points="825.239,200.000 825.239,186.635 "/>
      <polyline fill="none" stroke="#ffffff" stroke-width="1.5pt" stroke-dasharray="none" points="1350.000,200.000 1350.000,186.635 "/>
      <polyline fill="none" stroke="#ffffff" stroke-width="1.5pt" stroke-dasharray="none" points="13.500,200.000 1350.000,200.000 "/>
  <g transform="translate(13.500,215.800)">
    <g transform="rotate(-0.0)">
      <text x="0.000" y="0.000" font-family="Helvetica" text-anchor="middle" font-size="10pt" fill="#ffffff" >  1</text>
    </g>
  </g>
  <g transform="translate(825.239,215.800)">
    <g transform="rotate(-0.0)">
      <text x="0.000" y="0.000" font-family="Helvetica" text-anchor="middle" font-size="10pt" fill="#ffffff" >100</text>
    </g>
  </g>
  <g transform="translate(1350.000,215.800)">
    <g transform="rotate(-0.0)">
      <text x="0.000" y="0.000" font-family="Helvetica" text-anchor="middle" font-size="10pt" fill="#ffffff" >164</text>
    </g>
  </g>
      <polyline fill="none" stroke="#000000" stroke-width="1.5pt" stroke-dasharray="none" points="13.500,200.000 13.500,0.000 "/>
      <polyline fill="none" stroke="#000000" stroke-width="1.5pt" stroke-dasharray="none" points="13.500,200.000 13.500,198.000 "/>
      <polyline fill="none" stroke="#000000" stroke-width="1.5pt" stroke-dasharray="none" points="13.500,200.000 13.500,198.000 "/>
      <polyline fill="none" stroke="#000000" stroke-width="1.5pt" stroke-dasharray="none" points="13.500,200.000 13.500,198.000 "/>
      <polyline fill="none" stroke="#000000" stroke-width="1.5pt" stroke-dasharray="none" points="13.500,200.000 13.500,200.000 "/>
    </g>
  </g>
  </g>
</svg>
