<?xml version="1.0" encoding="utf-8" standalone="no"?><!DOCTYPE svg PUBLIC "-//W3C//DTD SVG 1.1//EN" "http://www.w3.org/Graphics/SVG/1.1/DTD/svg11.dtd">
<svg preserveAspectRatio="xMinYMin meet" width="100%" height="100%" viewBox="0 0 1350.000 200.000"  version="1.1" xmlns="http://www.w3.org/2000/svg" xmlns:xlink="http://www.w3.org/1999/xlink">
  <desc>Matlab Figure Converted by PLOT2SVG written by Juerg Schwizer</desc>
  <g id="topgroup">
  <rect x="0" y="0" width="1350.000" height="200.000" fill="#ffffff" stroke="none" />
  <g id ="ID000000">
  <clipPath id="ID000001">
    <rect x="13.500" y="0.000" width="1336.500" height="200.000"/>
  </clipPath>
      <polygon fill="#ffffff" fill-opacity="1.00" stroke="none" stroke-width="1.5pt" stroke-opacity="1.00" stroke-dasharray="none" points="13.500,200.000 1350.000,200.000 1350.000,0.000 13.500,0.000 "/>
      <polygon fill="#ffffff" fill-opacity="1.00" stroke="none" stroke-width="1.5pt" stroke-opacity="1.00" stroke-dasharray="none" points="13.500,0.000 1350.000,0.000 1350.000,0.000 13.500,0.000 "/>
      <polygon fill="#ffffff" fill-opacity="1.00" stroke="none" stroke-width="1.5pt" stroke-opacity="1.00" stroke-dasharray="none" points="13.500,200.000 13.500,200.000 13.500,0.000 13.500,0.000 "/>
    <g>
<g id="ID000002" clip-path="url(#ID000001)" >
      <polyline fill="none" stroke="#e09000" stroke-width="1.5pt" stroke-dasharray="none" points="13.500,0.000 21.699,3.773 29.899,50.977 38.098,120.463 46.298,146.187 54.497,109.087 62.696,71.341 70.896,145.107 79.095,173.725 87.294,162.855 95.494,124.389 103.693,115.167 111.893,145.532 120.092,163.324 128.291,134.672 136.491,86.499 144.690,69.669 152.890,92.628 161.089,141.224 169.288,121.589 177.488,102.408 185.687,117.808 193.887,99.459 202.086,68.024 210.285,57.938 218.485,21.137 226.684,34.025 234.883,107.200 243.083,125.124 251.282,79.577 259.482,99.234 267.681,168.585 275.880,164.992 284.080,110.401 292.279,54.355 300.479,43.060 308.678,34.716 316.877,86.088 325.077,114.328 333.276,144.245 341.475,117.986 349.675,101.798 357.874,69.076 366.074,54.637 374.273,23.013 382.472,5.711 390.672,20.381 398.871,118.793 407.071,174.837 415.270,143.921 423.469,114.019 431.669,123.181 439.868,123.622 448.067,152.195 456.267,116.735 464.466,51.369 472.666,34.275 480.865,87.546 489.064,168.655 497.264,147.254 505.463,153.570 513.663,142.439 521.862,89.695 530.061,52.020 538.261,31.049 546.460,6.566 554.660,24.497 562.859,94.265 571.058,153.156 579.258,145.269 587.457,138.039 595.656,112.704 603.856,80.002 612.055,49.108 620.255,8.125 628.454,0.000 636.653,29.950 644.853,117.480 653.052,200.000 661.252,192.271 669.451,163.603 677.650,173.846 685.850,119.583 694.049,52.979 702.248,59.622 710.448,81.945 718.647,117.329 726.847,161.559 735.046,141.198 743.245,71.693 751.445,22.153 759.644,59.303 767.844,98.218 776.043,81.161 784.242,86.219 792.442,67.351 800.641,60.492 808.840,112.941 817.040,177.283 825.239,174.392 833.439,152.353 841.638,144.474 849.837,92.324 858.037,111.108 866.236,139.499 874.436,125.991 882.635,124.000 890.834,112.708 899.034,126.915 907.233,137.723 915.433,125.367 923.632,93.030 931.831,73.973 940.031,55.822 948.230,59.227 956.429,67.854 964.629,95.841 972.828,139.090 981.028,144.538 989.227,138.044 997.426,136.936 1005.626,75.014 1013.825,59.762 1022.025,68.939 1030.224,65.662 1038.423,22.947 1046.623,42.561 1054.822,145.483 1063.021,146.690 1071.221,90.581 1079.420,70.170 1087.620,78.827 1095.819,103.869 1104.018,156.418 1112.218,93.760 1120.417,46.267 1128.617,63.637 1136.816,124.007 1145.015,162.554 1153.215,157.791 1161.414,156.016 1169.613,92.956 1177.813,77.764 1186.012,62.588 1194.212,59.153 1202.411,49.206 1210.610,87.962 1218.810,134.316 1227.009,148.863 1235.209,123.990 1243.408,98.490 1251.607,112.872 1259.807,92.761 1268.006,42.774 1276.206,29.306 1284.405,54.882 1292.604,87.861 1300.804,140.421 1309.003,200.000 1317.202,198.335 1325.402,145.252 1333.601,72.821 1341.801,61.252 1350.000,51.898 "/>
<g>
</g>
</g>
<g id="ID000003" >
</g>
<g id="ID000004" >
</g>
<g id="ID000005" >
</g>
<g id="ID000006" >
      <polyline fill="none" stroke="#000000" stroke-width="1.5pt" stroke-dasharray="none" points="13.500,200.000 13.500,0.000 "/>
<g>
</g>
</g>
<g id="ID000007" >
      <polyline fill="none" stroke="#000000" stroke-width="1.5pt" stroke-dasharray="none" points="13.500,100.000 1350.000,100.000 "/>
<g>
</g>
</g>
    </g>
    <g>
      <polyline fill="none" stroke="#ffffff" stroke-width="1.5pt" stroke-dasharray="none" points="13.500,200.000 13.500,186.635 "/>
      <polyline fill="none" stroke="#ffffff" stroke-width="1.5pt" stroke-dasharray="none" points="825.239,200.000 825.239,186.635 "/>
      <polyline fill="none" stroke="#ffffff" stroke-width="1.5pt" stroke-dasharray="none" points="1350.000,200.000 1350.000,186.635 "/>
      <polyline fill="none" stroke="#ffffff" stroke-width="1.5pt" stroke-dasharray="none" points="13.500,200.000 1350.000,200.000 "/>
  <g transform="translate(13.500,215.800)">
    <g transform="rotate(-0.0)">
      <text x="0.000" y="0.000" font-family="Helvetica" text-anchor="middle" font-size="10pt" fill="#ffffff" >  1</text>
    </g>
  </g>
  <g transform="translate(825.239,215.800)">
    <g transform="rotate(-0.0)">
      <text x="0.000" y="0.000" font-family="Helvetica" text-anchor="middle" font-size="10pt" fill="#ffffff" >100</text>
    </g>
  </g>
  <g transform="translate(1350.000,215.800)">
    <g transform="rotate(-0.0)">
      <text x="0.000" y="0.000" font-family="Helvetica" text-anchor="middle" font-size="10pt" fill="#ffffff" >164</text>
    </g>
  </g>
      <polyline fill="none" stroke="#000000" stroke-width="1.5pt" stroke-dasharray="none" points="13.500,200.000 13.500,0.000 "/>
      <polyline fill="none" stroke="#000000" stroke-width="1.5pt" stroke-dasharray="none" points="13.500,200.000 13.500,198.000 "/>
      <polyline fill="none" stroke="#000000" stroke-width="1.5pt" stroke-dasharray="none" points="13.500,200.000 13.500,198.000 "/>
      <polyline fill="none" stroke="#000000" stroke-width="1.5pt" stroke-dasharray="none" points="13.500,200.000 13.500,198.000 "/>
      <polyline fill="none" stroke="#000000" stroke-width="1.5pt" stroke-dasharray="none" points="13.500,200.000 13.500,200.000 "/>
    </g>
  </g>
  </g>
</svg>
