<?xml version="1.0" encoding="utf-8" standalone="no"?><!DOCTYPE svg PUBLIC "-//W3C//DTD SVG 1.1//EN" "http://www.w3.org/Graphics/SVG/1.1/DTD/svg11.dtd">
<svg preserveAspectRatio="xMinYMin meet" width="100%" height="100%" viewBox="0 0 1350.000 200.000"  version="1.1" xmlns="http://www.w3.org/2000/svg" xmlns:xlink="http://www.w3.org/1999/xlink">
  <desc>Matlab Figure Converted by PLOT2SVG written by Juerg Schwizer</desc>
  <g id="topgroup">
  <rect x="0" y="0" width="1350.000" height="200.000" fill="#ffffff" stroke="none" />
  <g id ="ID000000">
  <clipPath id="ID000001">
    <rect x="13.500" y="0.000" width="1336.500" height="200.000"/>
  </clipPath>
      <polygon fill="#ffffff" fill-opacity="1.00" stroke="none" stroke-width="1.5pt" stroke-opacity="1.00" stroke-dasharray="none" points="13.500,200.000 1350.000,200.000 1350.000,0.000 13.500,0.000 "/>
      <polygon fill="#ffffff" fill-opacity="1.00" stroke="none" stroke-width="1.5pt" stroke-opacity="1.00" stroke-dasharray="none" points="13.500,0.000 1350.000,0.000 1350.000,0.000 13.500,0.000 "/>
      <polygon fill="#ffffff" fill-opacity="1.00" stroke="none" stroke-width="1.5pt" stroke-opacity="1.00" stroke-dasharray="none" points="13.500,200.000 13.500,200.000 13.500,0.000 13.500,0.000 "/>
    <g>
<g id="ID000002" clip-path="url(#ID000001)" >
      <polyline fill="none" stroke="#00a000" stroke-width="1.5pt" stroke-dasharray="none" points="13.500,100.352 21.699,66.521 29.899,52.139 38.098,106.916 46.298,94.640 54.497,95.433 62.696,34.013 70.896,64.805 79.095,122.359 87.294,168.912 95.494,126.975 103.693,118.486 111.893,172.304 120.092,168.737 128.291,172.346 136.491,111.473 144.690,70.481 152.890,55.389 161.089,120.482 169.288,128.137 177.488,85.037 185.687,103.180 193.887,131.827 202.086,114.885 210.285,103.245 218.485,96.740 226.684,98.010 234.883,130.033 243.083,128.194 251.282,122.223 259.482,100.117 267.681,80.630 275.880,120.998 284.080,104.755 292.279,114.408 300.479,82.198 308.678,47.202 316.877,73.592 325.077,133.079 333.276,191.923 341.475,145.825 349.675,125.365 357.874,128.108 366.074,151.483 374.273,114.616 382.472,97.032 390.672,74.191 398.871,38.578 407.071,98.935 415.270,131.130 423.469,95.810 431.669,121.878 439.868,194.352 448.067,200.000 456.267,169.639 464.466,113.832 472.666,39.820 480.865,59.138 489.064,143.249 497.264,168.095 505.463,129.821 513.663,136.658 521.862,146.541 530.061,130.644 538.261,136.558 546.460,29.243 554.660,3.721 562.859,17.679 571.058,131.548 579.258,165.309 587.457,129.016 595.656,87.403 603.856,47.709 612.055,87.906 620.255,121.031 628.454,91.360 636.653,0.000 644.853,30.607 653.052,92.558 661.252,132.290 669.451,100.823 677.650,102.717 685.850,121.422 694.049,125.065 702.248,175.255 710.448,111.839 718.647,48.862 726.847,56.549 735.046,104.785 743.245,154.870 751.445,101.572 759.644,74.753 767.844,78.309 776.043,85.414 784.242,146.690 792.442,99.157 800.641,49.921 808.840,96.138 817.040,157.473 825.239,184.703 833.439,118.057 841.638,125.448 849.837,126.035 858.037,157.283 866.236,149.610 874.436,117.694 882.635,96.715 890.834,58.886 899.034,108.850 907.233,149.893 915.433,85.026 923.632,69.415 931.831,106.294 940.031,110.170 948.230,133.186 956.429,129.529 964.629,31.260 972.828,0.000 981.028,106.577 989.227,160.720 997.426,101.044 1005.626,74.196 1013.825,102.865 1022.025,163.497 1030.224,200.000 1038.423,157.499 1046.623,60.239 1054.822,59.800 1063.021,151.206 1071.221,121.229 1079.420,70.596 1087.620,71.076 1095.819,52.344 1104.018,66.525 1112.218,104.503 1120.417,76.654 1128.617,16.220 1136.816,50.012 1145.015,143.820 1153.215,166.761 1161.414,105.555 1169.613,86.816 1177.813,132.330 1186.012,94.950 1194.212,88.985 1202.411,135.831 1210.610,107.099 1218.810,64.823 1227.009,118.825 1235.209,173.584 1243.408,112.132 1251.607,80.045 1259.807,125.417 1268.006,134.587 1276.206,136.216 1284.405,80.784 1292.604,48.224 1300.804,68.607 1309.003,117.758 1317.202,131.599 1325.402,108.265 1333.601,117.801 1341.801,110.793 1350.000,138.923 "/>
<g>
</g>
</g>
<g id="ID000003" >
</g>
<g id="ID000004" >
</g>
<g id="ID000005" >
</g>
<g id="ID000006" >
      <polyline fill="none" stroke="#000000" stroke-width="1.5pt" stroke-dasharray="none" points="13.500,200.000 13.500,0.000 "/>
<g>
</g>
</g>
<g id="ID000007" >
      <polyline fill="none" stroke="#000000" stroke-width="1.5pt" stroke-dasharray="none" points="13.500,100.000 1350.000,100.000 "/>
<g>
</g>
</g>
    </g>
    <g>
      <polyline fill="none" stroke="#ffffff" stroke-width="1.5pt" stroke-dasharray="none" points="13.500,200.000 13.500,186.635 "/>
      <polyline fill="none" stroke="#ffffff" stroke-width="1.5pt" stroke-dasharray="none" points="825.239,200.000 825.239,186.635 "/>
      <polyline fill="none" stroke="#ffffff" stroke-width="1.5pt" stroke-dasharray="none" points="1350.000,200.000 1350.000,186.635 "/>
      <polyline fill="none" stroke="#ffffff" stroke-width="1.5pt" stroke-dasharray="none" points="13.500,200.000 1350.000,200.000 "/>
  <g transform="translate(13.500,215.800)">
    <g transform="rotate(-0.0)">
      <text x="0.000" y="0.000" font-family="Helvetica" text-anchor="middle" font-size="10pt" fill="#ffffff" >  1</text>
    </g>
  </g>
  <g transform="translate(825.239,215.800)">
    <g transform="rotate(-0.0)">
      <text x="0.000" y="0.000" font-family="Helvetica" text-anchor="middle" font-size="10pt" fill="#ffffff" >100</text>
    </g>
  </g>
  <g transform="translate(1350.000,215.800)">
    <g transform="rotate(-0.0)">
      <text x="0.000" y="0.000" font-family="Helvetica" text-anchor="middle" font-size="10pt" fill="#ffffff" >164</text>
    </g>
  </g>
      <polyline fill="none" stroke="#000000" stroke-width="1.5pt" stroke-dasharray="none" points="13.500,200.000 13.500,0.000 "/>
      <polyline fill="none" stroke="#000000" stroke-width="1.5pt" stroke-dasharray="none" points="13.500,200.000 13.500,198.000 "/>
      <polyline fill="none" stroke="#000000" stroke-width="1.5pt" stroke-dasharray="none" points="13.500,200.000 13.500,198.000 "/>
      <polyline fill="none" stroke="#000000" stroke-width="1.5pt" stroke-dasharray="none" points="13.500,200.000 13.500,198.000 "/>
      <polyline fill="none" stroke="#000000" stroke-width="1.5pt" stroke-dasharray="none" points="13.500,200.000 13.500,200.000 "/>
    </g>
  </g>
  </g>
</svg>
