<?xml version="1.0" encoding="utf-8" standalone="no"?><!DOCTYPE svg PUBLIC "-//W3C//DTD SVG 1.1//EN" "http://www.w3.org/Graphics/SVG/1.1/DTD/svg11.dtd">
<svg preserveAspectRatio="xMinYMin meet" width="100%" height="100%" viewBox="0 0 560.000 420.000"  version="1.1" xmlns="http://www.w3.org/2000/svg" xmlns:xlink="http://www.w3.org/1999/xlink">
  <desc>Matlab Figure Converted by PLOT2SVG written by Juerg Schwizer</desc>
  <g id="topgroup">
  <rect x="0" y="0" width="560.000" height="420.000" fill="#ffffff" stroke="none" />
  <g id ="ID000000">
  <clipPath id="ID000001">
    <rect x="61.600" y="46.200" width="476.000" height="315.000"/>
  </clipPath>
      <polygon fill="#ffffff" fill-opacity="1.00" stroke="none" stroke-width="2.0pt" stroke-opacity="1.00" stroke-dasharray="none" points="61.600,361.200 537.600,361.200 537.600,46.200 61.600,46.200 "/>
      <polygon fill="#ffffff" fill-opacity="1.00" stroke="none" stroke-width="2.0pt" stroke-opacity="1.00" stroke-dasharray="none" points="61.600,361.200 537.600,361.200 537.600,361.200 61.600,361.200 "/>
      <polygon fill="#ffffff" fill-opacity="1.00" stroke="none" stroke-width="2.0pt" stroke-opacity="1.00" stroke-dasharray="none" points="61.600,361.200 61.600,361.200 61.600,46.200 61.600,46.200 "/>
    <g>
<g id="ID000002" >
  <g transform="translate(270.786,143.024)">
    <g transform="rotate(-90.0)">
      <text x="0.000" y="0.000" font-family="Courier" text-anchor="start" font-size="18pt" font-weight="bold" fill="#000000" >**</text>
    </g>
  </g>
</g>
<g id="ID000003" >
  <g transform="translate(344.614,196.467)">
    <g transform="rotate(-90.0)">
      <text x="0.000" y="0.000" font-family="Courier" text-anchor="start" font-size="18pt" font-weight="bold" fill="#000000" >*</text>
    </g>
  </g>
</g>
<g id="ID000004" >
  <g transform="translate(125.932,372.694)">
    <g transform="rotate(-45.0)">
      <text x="0.000" y="0.000" font-family="Helvetica" text-anchor="end" font-size="10pt" fill="#000000" >OCC</text>
    </g>
  </g>
</g>
<g id="ID000005" >
  <g transform="translate(200.321,372.694)">
    <g transform="rotate(-45.0)">
      <text x="0.000" y="0.000" font-family="Helvetica" text-anchor="end" font-size="10pt" fill="#000000" >DLPFC</text>
    </g>
  </g>
</g>
<g id="ID000006" >
  <g transform="translate(273.462,372.694)">
    <g transform="rotate(-45.0)">
      <text x="0.000" y="0.000" font-family="Helvetica" text-anchor="end" font-size="10pt" fill="#000000" >PPC</text>
    </g>
  </g>
</g>
<g id="ID000007" >
  <g transform="translate(347.352,372.694)">
    <g transform="rotate(-45.0)">
      <text x="0.000" y="0.000" font-family="Helvetica" text-anchor="end" font-size="10pt" fill="#000000" >PCU</text>
    </g>
  </g>
</g>
<g id="ID000008" >
  <g transform="translate(420.993,372.694)">
    <g transform="rotate(-45.0)">
      <text x="0.000" y="0.000" font-family="Helvetica" text-anchor="end" font-size="10pt" fill="#000000" >FEF</text>
    </g>
  </g>
</g>
<g id="ID000009" >
  <g transform="translate(494.945,372.694)">
    <g transform="rotate(-45.0)">
      <text x="0.000" y="0.000" font-family="Helvetica" text-anchor="end" font-size="10pt" fill="#000000" >LOC</text>
    </g>
  </g>
</g>
<g id="ID000010" clip-path="url(#ID000001)" >
      <polygon fill="#c6d0e2" fill-opacity="1.00" stroke="none" stroke-width="0.0pt" stroke-opacity="1.00" stroke-dasharray="none" points="463.772,282.450 463.772,259.727 504.565,259.727 504.565,282.450 "/>
</g>
<g id="ID000011" clip-path="url(#ID000001)" >
      <polygon fill="#dfbfdf" fill-opacity="1.00" stroke="none" stroke-width="0.0pt" stroke-opacity="1.00" stroke-dasharray="none" points="389.945,282.450 389.945,242.536 430.738,242.536 430.738,282.450 "/>
</g>
<g id="ID000012" clip-path="url(#ID000001)" >
      <polygon fill="#a04700" fill-opacity="1.00" stroke="none" stroke-width="0.0pt" stroke-opacity="1.00" stroke-dasharray="none" points="316.117,282.450 316.117,224.329 356.910,224.329 356.910,282.450 "/>
</g>
<g id="ID000013" clip-path="url(#ID000001)" >
      <polygon fill="#00a000" fill-opacity="1.00" stroke="none" stroke-width="0.0pt" stroke-opacity="1.00" stroke-dasharray="none" points="242.290,282.450 242.290,179.282 283.083,179.282 283.083,282.450 "/>
</g>
<g id="ID000014" clip-path="url(#ID000001)" >
      <polygon fill="#bfdfdf" fill-opacity="1.00" stroke="none" stroke-width="0.0pt" stroke-opacity="1.00" stroke-dasharray="none" points="168.462,282.450 168.462,217.370 209.255,217.370 209.255,282.450 "/>
</g>
<g id="ID000015" clip-path="url(#ID000001)" >
      <polygon fill="#dfbfbf" fill-opacity="1.00" stroke="none" stroke-width="0.0pt" stroke-opacity="1.00" stroke-dasharray="none" points="94.635,282.450 94.635,174.736 135.428,174.736 135.428,282.450 "/>
</g>
<g id="ID000016" >
      <polyline fill="none" stroke="#000000" stroke-width="2.0pt" stroke-dasharray="none" points="484.169,304.771 484.169,214.682 "/>
<g>
</g>
</g>
<g id="ID000017" >
      <polyline fill="none" stroke="#000000" stroke-width="2.0pt" stroke-dasharray="none" points="410.341,269.285 410.341,215.787 "/>
<g>
</g>
</g>
<g id="ID000018" >
      <polyline fill="none" stroke="#000000" stroke-width="2.0pt" stroke-dasharray="none" points="336.514,246.958 336.514,201.700 "/>
<g>
</g>
</g>
<g id="ID000019" >
      <polyline fill="none" stroke="#000000" stroke-width="2.0pt" stroke-dasharray="none" points="262.686,210.307 262.686,148.258 "/>
<g>
</g>
</g>
<g id="ID000020" >
      <polyline fill="none" stroke="#000000" stroke-width="2.0pt" stroke-dasharray="none" points="188.859,250.512 188.859,184.228 "/>
<g>
</g>
</g>
<g id="ID000021" >
      <polyline fill="none" stroke="#000000" stroke-width="2.0pt" stroke-dasharray="none" points="115.031,240.906 115.031,108.566 "/>
<g>
</g>
</g>
<g id="ID000022" >
      <polyline fill="none" stroke="#000000" stroke-width="2.0pt" stroke-dasharray="none" points="61.600,361.200 537.600,361.200 "/>
<g>
</g>
</g>
<g id="ID000023" >
      <polyline fill="none" stroke="#000000" stroke-width="2.0pt" stroke-dasharray="none" points="61.600,361.200 61.600,46.200 "/>
<g>
</g>
</g>
<g id="ID000024" >
</g>
<g id="ID000025" >
  <g transform="translate(21.100,205.700)">
    <g transform="rotate(-90.0)">
      <text x="0.000" y="0.000" font-family="Helvetica" text-anchor="middle" font-size="12pt" fill="#000000" >Fisher's z(r)</text>
    </g>
  </g>
</g>
<g id="ID000026" >
</g>
    </g>
    <g>
      <polyline fill="none" stroke="#000000" stroke-width="2.0pt" stroke-dasharray="none" points="61.600,361.200 537.600,361.200 "/>
      <polyline fill="none" stroke="#000000" stroke-width="2.0pt" stroke-dasharray="none" points="61.600,361.200 66.360,361.200 "/>
      <polyline fill="none" stroke="#000000" stroke-width="2.0pt" stroke-dasharray="none" points="61.600,282.450 66.360,282.450 "/>
      <polyline fill="none" stroke="#000000" stroke-width="2.0pt" stroke-dasharray="none" points="61.600,203.700 66.360,203.700 "/>
      <polyline fill="none" stroke="#000000" stroke-width="2.0pt" stroke-dasharray="none" points="61.600,124.950 66.360,124.950 "/>
      <polyline fill="none" stroke="#000000" stroke-width="2.0pt" stroke-dasharray="none" points="61.600,46.200 66.360,46.200 "/>
      <polyline fill="none" stroke="#000000" stroke-width="2.0pt" stroke-dasharray="none" points="61.600,361.200 61.600,46.200 "/>
  <g transform="translate(52.080,365.700)">
    <g transform="rotate(-0.0)">
      <text x="0.000" y="0.000" font-family="Helvetica" text-anchor="end" font-size="10pt" fill="#000000" >-0.5</text>
    </g>
  </g>
  <g transform="translate(52.080,286.950)">
    <g transform="rotate(-0.0)">
      <text x="0.000" y="0.000" font-family="Helvetica" text-anchor="end" font-size="10pt" fill="#000000" >0</text>
    </g>
  </g>
  <g transform="translate(52.080,208.200)">
    <g transform="rotate(-0.0)">
      <text x="0.000" y="0.000" font-family="Helvetica" text-anchor="end" font-size="10pt" fill="#000000" >0.5</text>
    </g>
  </g>
  <g transform="translate(52.080,129.450)">
    <g transform="rotate(-0.0)">
      <text x="0.000" y="0.000" font-family="Helvetica" text-anchor="end" font-size="10pt" fill="#000000" >1</text>
    </g>
  </g>
  <g transform="translate(52.080,50.700)">
    <g transform="rotate(-0.0)">
      <text x="0.000" y="0.000" font-family="Helvetica" text-anchor="end" font-size="10pt" fill="#000000" >1.5</text>
    </g>
  </g>
      <polyline fill="none" stroke="#000000" stroke-width="2.0pt" stroke-dasharray="none" points="61.600,361.200 61.600,358.050 "/>
      <polyline fill="none" stroke="#000000" stroke-width="2.0pt" stroke-dasharray="none" points="61.600,361.200 61.600,358.050 "/>
      <polyline fill="none" stroke="#000000" stroke-width="2.0pt" stroke-dasharray="none" points="61.600,361.200 61.600,358.050 "/>
      <polyline fill="none" stroke="#000000" stroke-width="2.0pt" stroke-dasharray="none" points="61.600,361.200 61.600,361.200 "/>
    </g>
  </g>
  </g>
</svg>
