<?xml version="1.0" encoding="utf-8" standalone="no"?><!DOCTYPE svg PUBLIC "-//W3C//DTD SVG 1.1//EN" "http://www.w3.org/Graphics/SVG/1.1/DTD/svg11.dtd">
<svg preserveAspectRatio="xMinYMin meet" width="100%" height="100%" viewBox="0 0 560.000 420.000"  version="1.1" xmlns="http://www.w3.org/2000/svg" xmlns:xlink="http://www.w3.org/1999/xlink">
  <desc>Matlab Figure Converted by PLOT2SVG written by Juerg Schwizer</desc>
  <g id="topgroup">
  <rect x="0" y="0" width="560.000" height="420.000" fill="#ffffff" stroke="none" />
  <g id ="ID000000">
  <clipPath id="ID000001">
    <rect x="61.600" y="46.200" width="476.000" height="315.000"/>
  </clipPath>
      <polygon fill="#ffffff" fill-opacity="1.00" stroke="none" stroke-width="2.0pt" stroke-opacity="1.00" stroke-dasharray="none" points="61.600,361.200 537.600,361.200 537.600,46.200 61.600,46.200 "/>
      <polygon fill="#ffffff" fill-opacity="1.00" stroke="none" stroke-width="2.0pt" stroke-opacity="1.00" stroke-dasharray="none" points="61.600,46.200 537.600,46.200 537.600,46.200 61.600,46.200 "/>
      <polygon fill="#ffffff" fill-opacity="1.00" stroke="none" stroke-width="2.0pt" stroke-opacity="1.00" stroke-dasharray="none" points="61.600,361.200 61.600,361.200 61.600,46.200 61.600,46.200 "/>
    <g>
<g id="ID000002" >
  <g transform="translate(123.131,64.813)">
    <g transform="rotate(-90.0)">
      <text x="0.000" y="0.000" font-family="Courier" text-anchor="start" font-size="18pt" font-weight="bold" fill="#000000" >*5</text>
    </g>
  </g>
</g>
<g id="ID000003" >
  <g transform="translate(196.959,74.700)">
    <g transform="rotate(-90.0)">
      <text x="0.000" y="0.000" font-family="Courier" text-anchor="start" font-size="18pt" font-weight="bold" fill="#000000" >*5</text>
    </g>
  </g>
</g>
<g id="ID000004" >
  <g transform="translate(270.786,98.269)">
    <g transform="rotate(-90.0)">
      <text x="0.000" y="0.000" font-family="Courier" text-anchor="start" font-size="18pt" font-weight="bold" fill="#000000" >*7</text>
    </g>
  </g>
</g>
<g id="ID000005" >
  <g transform="translate(344.614,141.264)">
    <g transform="rotate(-90.0)">
      <text x="0.000" y="0.000" font-family="Courier" text-anchor="start" font-size="18pt" font-weight="bold" fill="#000000" >*7</text>
    </g>
  </g>
</g>
<g id="ID000006" >
  <g transform="translate(418.441,166.294)">
    <g transform="rotate(-90.0)">
      <text x="0.000" y="0.000" font-family="Courier" text-anchor="start" font-size="18pt" font-weight="bold" fill="#000000" >*5</text>
    </g>
  </g>
</g>
<g id="ID000007" >
  <g transform="translate(492.269,216.998)">
    <g transform="rotate(-90.0)">
      <text x="0.000" y="0.000" font-family="Courier" text-anchor="start" font-size="18pt" font-weight="bold" fill="#000000" >*</text>
    </g>
  </g>
</g>
<g id="ID000008" >
  <g transform="translate(125.932,372.694)">
    <g transform="rotate(-45.0)">
      <text x="0.000" y="0.000" font-family="Helvetica" text-anchor="end" font-size="10pt" fill="#000000" >OCC</text>
    </g>
  </g>
</g>
<g id="ID000009" >
  <g transform="translate(200.321,372.694)">
    <g transform="rotate(-45.0)">
      <text x="0.000" y="0.000" font-family="Helvetica" text-anchor="end" font-size="10pt" fill="#000000" >DLPFC</text>
    </g>
  </g>
</g>
<g id="ID000010" >
  <g transform="translate(273.462,372.694)">
    <g transform="rotate(-45.0)">
      <text x="0.000" y="0.000" font-family="Helvetica" text-anchor="end" font-size="10pt" fill="#000000" >PPC</text>
    </g>
  </g>
</g>
<g id="ID000011" >
  <g transform="translate(347.352,372.694)">
    <g transform="rotate(-45.0)">
      <text x="0.000" y="0.000" font-family="Helvetica" text-anchor="end" font-size="10pt" fill="#000000" >PCU</text>
    </g>
  </g>
</g>
<g id="ID000012" >
  <g transform="translate(420.993,372.694)">
    <g transform="rotate(-45.0)">
      <text x="0.000" y="0.000" font-family="Helvetica" text-anchor="end" font-size="10pt" fill="#000000" >FEF</text>
    </g>
  </g>
</g>
<g id="ID000013" >
  <g transform="translate(494.945,372.694)">
    <g transform="rotate(-45.0)">
      <text x="0.000" y="0.000" font-family="Helvetica" text-anchor="end" font-size="10pt" fill="#000000" >LOC</text>
    </g>
  </g>
</g>
<g id="ID000014" clip-path="url(#ID000001)" >
      <polygon fill="#3f5fff" fill-opacity="1.00" stroke="none" stroke-width="0.0pt" stroke-opacity="1.00" stroke-dasharray="none" points="463.772,361.200 463.772,263.662 504.565,263.662 504.565,361.200 "/>
</g>
<g id="ID000015" clip-path="url(#ID000001)" >
      <polygon fill="#e000e0" fill-opacity="1.00" stroke="none" stroke-width="0.0pt" stroke-opacity="1.00" stroke-dasharray="none" points="389.945,361.200 389.945,200.423 430.738,200.423 430.738,361.200 "/>
</g>
<g id="ID000016" clip-path="url(#ID000001)" >
      <polygon fill="#a04700" fill-opacity="1.00" stroke="none" stroke-width="0.0pt" stroke-opacity="1.00" stroke-dasharray="none" points="316.117,361.200 316.117,170.757 356.910,170.757 356.910,361.200 "/>
</g>
<g id="ID000017" clip-path="url(#ID000001)" >
      <polygon fill="#00a000" fill-opacity="1.00" stroke="none" stroke-width="0.0pt" stroke-opacity="1.00" stroke-dasharray="none" points="242.290,361.200 242.290,132.833 283.083,132.833 283.083,361.200 "/>
</g>
<g id="ID000018" clip-path="url(#ID000001)" >
      <polygon fill="#00e0e0" fill-opacity="1.00" stroke="none" stroke-width="0.0pt" stroke-opacity="1.00" stroke-dasharray="none" points="168.462,361.200 168.462,124.038 209.255,124.038 209.255,361.200 "/>
</g>
<g id="ID000019" clip-path="url(#ID000001)" >
      <polygon fill="#e00000" fill-opacity="1.00" stroke="none" stroke-width="0.0pt" stroke-opacity="1.00" stroke-dasharray="none" points="94.635,361.200 94.635,114.121 135.428,114.121 135.428,361.200 "/>
</g>
<g id="ID000020" >
      <polyline fill="none" stroke="#000000" stroke-width="2.0pt" stroke-dasharray="none" points="484.169,302.849 484.169,224.474 "/>
<g>
</g>
</g>
<g id="ID000021" >
      <polyline fill="none" stroke="#000000" stroke-width="2.0pt" stroke-dasharray="none" points="410.341,227.076 410.341,173.770 "/>
<g>
</g>
</g>
<g id="ID000022" >
      <polyline fill="none" stroke="#000000" stroke-width="2.0pt" stroke-dasharray="none" points="336.514,192.774 336.514,148.741 "/>
<g>
</g>
</g>
<g id="ID000023" >
      <polyline fill="none" stroke="#000000" stroke-width="2.0pt" stroke-dasharray="none" points="262.686,159.920 262.686,105.745 "/>
<g>
</g>
</g>
<g id="ID000024" >
      <polyline fill="none" stroke="#000000" stroke-width="2.0pt" stroke-dasharray="none" points="188.859,165.900 188.859,82.176 "/>
<g>
</g>
</g>
<g id="ID000025" >
      <polyline fill="none" stroke="#000000" stroke-width="2.0pt" stroke-dasharray="none" points="115.031,155.952 115.031,72.289 "/>
<g>
</g>
</g>
<g id="ID000026" >
      <polyline fill="none" stroke="#000000" stroke-width="2.0pt" stroke-dasharray="none" points="61.600,361.200 537.600,361.200 "/>
<g>
</g>
</g>
<g id="ID000027" >
      <polyline fill="none" stroke="#000000" stroke-width="2.0pt" stroke-dasharray="none" points="61.600,361.200 61.600,46.200 "/>
<g>
</g>
</g>
<g id="ID000028" >
</g>
<g id="ID000029" >
  <g transform="translate(25.100,205.700)">
    <g transform="rotate(-90.0)">
      <text x="0.000" y="0.000" font-family="Helvetica" text-anchor="middle" font-size="12pt" fill="#000000" >Fisher's z(r)</text>
    </g>
  </g>
</g>
<g id="ID000030" >
</g>
    </g>
    <g>
      <polyline fill="none" stroke="#000000" stroke-width="2.0pt" stroke-dasharray="none" points="61.600,361.200 537.600,361.200 "/>
      <polyline fill="none" stroke="#000000" stroke-width="2.0pt" stroke-dasharray="none" points="61.600,361.200 66.360,361.200 "/>
      <polyline fill="none" stroke="#000000" stroke-width="2.0pt" stroke-dasharray="none" points="61.600,298.200 66.360,298.200 "/>
      <polyline fill="none" stroke="#000000" stroke-width="2.0pt" stroke-dasharray="none" points="61.600,235.200 66.360,235.200 "/>
      <polyline fill="none" stroke="#000000" stroke-width="2.0pt" stroke-dasharray="none" points="61.600,172.200 66.360,172.200 "/>
      <polyline fill="none" stroke="#000000" stroke-width="2.0pt" stroke-dasharray="none" points="61.600,109.200 66.360,109.200 "/>
      <polyline fill="none" stroke="#000000" stroke-width="2.0pt" stroke-dasharray="none" points="61.600,46.200 66.360,46.200 "/>
      <polyline fill="none" stroke="#000000" stroke-width="2.0pt" stroke-dasharray="none" points="61.600,361.200 61.600,46.200 "/>
  <g transform="translate(52.080,365.700)">
    <g transform="rotate(-0.0)">
      <text x="0.000" y="0.000" font-family="Helvetica" text-anchor="end" font-size="10pt" fill="#000000" >0</text>
    </g>
  </g>
  <g transform="translate(52.080,302.700)">
    <g transform="rotate(-0.0)">
      <text x="0.000" y="0.000" font-family="Helvetica" text-anchor="end" font-size="10pt" fill="#000000" >0.5</text>
    </g>
  </g>
  <g transform="translate(52.080,239.700)">
    <g transform="rotate(-0.0)">
      <text x="0.000" y="0.000" font-family="Helvetica" text-anchor="end" font-size="10pt" fill="#000000" >1</text>
    </g>
  </g>
  <g transform="translate(52.080,176.700)">
    <g transform="rotate(-0.0)">
      <text x="0.000" y="0.000" font-family="Helvetica" text-anchor="end" font-size="10pt" fill="#000000" >1.5</text>
    </g>
  </g>
  <g transform="translate(52.080,113.700)">
    <g transform="rotate(-0.0)">
      <text x="0.000" y="0.000" font-family="Helvetica" text-anchor="end" font-size="10pt" fill="#000000" >2</text>
    </g>
  </g>
  <g transform="translate(52.080,50.700)">
    <g transform="rotate(-0.0)">
      <text x="0.000" y="0.000" font-family="Helvetica" text-anchor="end" font-size="10pt" fill="#000000" >2.5</text>
    </g>
  </g>
      <polyline fill="none" stroke="#000000" stroke-width="2.0pt" stroke-dasharray="none" points="61.600,361.200 61.600,358.050 "/>
      <polyline fill="none" stroke="#000000" stroke-width="2.0pt" stroke-dasharray="none" points="61.600,361.200 61.600,358.050 "/>
      <polyline fill="none" stroke="#000000" stroke-width="2.0pt" stroke-dasharray="none" points="61.600,361.200 61.600,358.050 "/>
      <polyline fill="none" stroke="#000000" stroke-width="2.0pt" stroke-dasharray="none" points="61.600,361.200 61.600,361.200 "/>
    </g>
  </g>
  </g>
</svg>
